<svg width="127" height="86" viewBox="0 0 127 86" fill="none" xmlns="http://www.w3.org/2000/svg">
<path d="M19.682 40.388C21.45 40.388 22.8713 40.934 23.946 42.026C25.038 43.1007 25.584 44.6087 25.584 46.55V55H21.944V47.044C21.944 45.9173 21.658 45.0593 21.086 44.47C20.514 43.8633 19.734 43.56 18.746 43.56C17.758 43.56 16.9693 43.8633 16.38 44.47C15.808 45.0593 15.522 45.9173 15.522 47.044V55H11.882V47.044C11.882 45.9173 11.596 45.0593 11.024 44.47C10.452 43.8633 9.672 43.56 8.684 43.56C7.67867 43.56 6.88133 43.8633 6.292 44.47C5.72 45.0593 5.434 45.9173 5.434 47.044V55H1.794V40.596H5.434V42.338C5.902 41.7313 6.5 41.2547 7.228 40.908C7.97333 40.5613 8.788 40.388 9.672 40.388C10.7987 40.388 11.804 40.6307 12.688 41.116C13.572 41.584 14.2567 42.26 14.742 43.144C15.21 42.312 15.886 41.6447 16.77 41.142C17.6713 40.6393 18.642 40.388 19.682 40.388ZM42.8181 40.596L33.9001 61.812H30.0261L33.1461 54.636L27.3741 40.596H31.4561L35.1741 50.658L38.9441 40.596H42.8181Z" fill="white"/>
<path d="M84.4863 20.1V55H77.4863V32.3L68.1363 55H62.8363L53.4363 32.3V55H46.4363V20.1H54.3863L65.4863 46.05L76.5863 20.1H84.4863ZM102.957 48.55L109.957 27.3H117.407L107.157 55H98.657L88.457 27.3H95.957L102.957 48.55Z" fill="#9F8AC0" fill-opacity="0.98"/>
<line x1="40" y1="62.5" x2="61" y2="62.5" stroke="#8F8686"/>
</svg>
