<svg width="275" height="217" viewBox="0 0 275 217" fill="none" xmlns="http://www.w3.org/2000/svg">
<g clip-path="url(#clip0_510_504)">
<path d="M249.654 0.141479H0.106567V159.963H249.654V0.141479Z" fill="#E6E6E6"/>
<path d="M242.518 20.187H7.24231V150.508H242.518V20.187Z" fill="white"/>
<path d="M249.547 0H0V10.6017H249.547V0Z" fill="#C5C5C7"/>
<path d="M7.87827 7.38508C8.96348 7.38508 9.84321 6.50535 9.84321 5.42014C9.84321 4.33493 8.96348 3.4552 7.87827 3.4552C6.79306 3.4552 5.91333 4.33493 5.91333 5.42014C5.91333 6.50535 6.79306 7.38508 7.87827 7.38508Z" fill="white"/>
<path d="M15.3368 7.38508C16.422 7.38508 17.3017 6.50535 17.3017 5.42014C17.3017 4.33493 16.422 3.4552 15.3368 3.4552C14.2516 3.4552 13.3718 4.33493 13.3718 5.42014C13.3718 6.50535 14.2516 7.38508 15.3368 7.38508Z" fill="white"/>
<path d="M22.7951 7.38508C23.8803 7.38508 24.7601 6.50535 24.7601 5.42014C24.7601 4.33493 23.8803 3.4552 22.7951 3.4552C21.7099 3.4552 20.8302 4.33493 20.8302 5.42014C20.8302 6.50535 21.7099 7.38508 22.7951 7.38508Z" fill="white"/>
<path d="M89.0752 33.7089H28.6204V136.986H89.0752V33.7089Z" fill="#E6E6E6"/>
<path d="M149.89 33.7089H99.5107V62.137H149.89V33.7089Z" fill="#C5C5C7"/>
<path d="M149.89 70.0537H99.5107V100.641H149.89V70.0537Z" fill="#E6E6E6"/>
<path d="M149.89 108.558H99.5107V136.986H149.89V108.558Z" fill="#E6E6E6"/>
<path d="M221.14 33.7089H160.685V78.7164H221.14V33.7089Z" fill="#E6E6E6"/>
<path d="M221.14 91.9783H160.685V136.986H221.14V91.9783Z" fill="#E6E6E6"/>
<path d="M197.851 81.9497V72.2603C197.851 68.8167 199.219 65.5142 201.654 63.0793C204.089 60.6443 207.391 59.2764 210.835 59.2764C214.278 59.2764 217.581 60.6443 220.016 63.0793C222.451 65.5142 223.819 68.8167 223.819 72.2603V81.9497C223.818 82.4121 223.634 82.8555 223.307 83.1824C222.98 83.5094 222.537 83.6933 222.075 83.6938H199.595C199.133 83.6933 198.689 83.5094 198.362 83.1824C198.035 82.8555 197.851 82.4121 197.851 81.9497Z" fill="#2F2E41"/>
<path d="M230.034 208.047L225.454 209.314L218.386 192.254L225.145 190.383L230.034 208.047Z" fill="#FFB8B8"/>
<path d="M221.821 208.911L230.653 206.467L232.192 212.028L217.799 216.011C217.597 215.281 217.541 214.518 217.633 213.766C217.726 213.014 217.966 212.288 218.339 211.628C218.713 210.969 219.213 210.39 219.81 209.924C220.407 209.457 221.091 209.113 221.821 208.911V208.911Z" fill="#2F2E41"/>
<path d="M182.289 211.57H177.538L175.277 193.242H182.29L182.289 211.57Z" fill="#FFB8B8"/>
<path d="M174.143 210.212H183.307V215.982H168.374C168.374 215.224 168.523 214.474 168.813 213.774C169.103 213.074 169.528 212.438 170.063 211.902C170.599 211.366 171.235 210.941 171.935 210.651C172.635 210.361 173.386 210.212 174.143 210.212V210.212Z" fill="#2F2E41"/>
<path d="M176.56 109.141C176.899 109.599 177.334 109.977 177.835 110.248C178.336 110.52 178.891 110.678 179.459 110.712C180.028 110.746 180.597 110.655 181.127 110.445C181.657 110.235 182.134 109.911 182.525 109.497L195.156 115.178L194.007 108.073L182.189 103.768C181.449 103.157 180.511 102.838 179.553 102.873C178.594 102.907 177.681 103.292 176.987 103.954C176.293 104.617 175.867 105.51 175.788 106.467C175.709 107.423 175.984 108.374 176.56 109.141H176.56Z" fill="#FFB8B8"/>
<path d="M202.804 151.867C198.836 151.867 194.727 151.276 191.274 149.518C189.441 148.603 187.816 147.32 186.502 145.748C185.188 144.177 184.212 142.351 183.635 140.385C181.836 134.688 184.105 129.091 186.299 123.678C187.658 120.324 188.942 117.156 189.275 114.034L189.392 112.925C189.911 107.946 190.359 103.645 192.84 102.032C194.126 101.196 195.855 101.148 198.127 101.886L219.461 108.816L218.677 149.315L218.547 149.358C218.435 149.396 210.915 151.867 202.804 151.867Z" fill="#2F2E41"/>
<path d="M197.754 89.2781C197.754 89.2781 208.219 86.1775 216.358 87.3402C216.358 87.3402 211.707 112.92 213.257 121.447C214.807 129.974 186.32 124.742 192.134 116.602L194.072 106.913C194.072 106.913 190.196 103.037 193.684 98.3862L197.754 89.2781Z" fill="#C5C5C7"/>
<path d="M192.607 151.1L179.709 148.681L184.212 114.029C184.515 113.062 191.49 91.1066 194.658 89.9187C196.958 89.1087 199.311 88.4551 201.699 87.9626L202.158 87.8708L199.572 91.75L189.276 116.421L192.607 151.1Z" fill="#2F2E41"/>
<path d="M185.887 207.323L169.223 204.546L178.574 166.36L192.49 114.139L192.627 115.066C192.638 115.135 193.938 121.957 213.227 118.93L213.397 118.904L213.444 119.069L236.757 201.444L217.77 204.609L200.451 144.508L185.887 207.323Z" fill="#2F2E41"/>
<path d="M208.983 157.584L208.994 157.291C209.005 156.966 210.152 124.59 209.769 111.57C209.385 98.5047 213.614 87.1905 213.657 87.0777L213.692 86.9869L213.785 86.96C219.258 85.3966 224.005 90.0627 224.053 90.11L224.119 90.1767L222.561 103.035L229.233 149.793L208.983 157.584Z" fill="#2F2E41"/>
<path d="M208.167 83.4683C213.424 83.4683 217.686 79.2063 217.686 73.9489C217.686 68.6915 213.424 64.4296 208.167 64.4296C202.909 64.4296 198.647 68.6915 198.647 73.9489C198.647 79.2063 202.909 83.4683 208.167 83.4683Z" fill="#FFB8B8"/>
<path d="M194.779 73.0354C194.782 70.3123 195.865 67.7017 197.791 65.7762C199.716 63.8507 202.327 62.7676 205.05 62.7645H206.988C209.711 62.7676 212.322 63.8507 214.247 65.7762C216.173 67.7017 217.256 70.3123 217.259 73.0354V73.2292H213.163L211.766 69.3178L211.487 73.2292H209.371L208.666 71.2557L208.525 73.2292H194.779V73.0354Z" fill="#2F2E41"/>
<path d="M207.23 84.7834C207.038 84.5231 206.923 84.2137 206.899 83.891C206.874 83.5682 206.942 83.2452 207.093 82.9591C209.147 79.053 212.022 71.8355 208.206 67.3844L207.931 67.0646H219.011V83.6994L208.946 85.4753C208.844 85.4933 208.741 85.5025 208.637 85.5026C208.363 85.5026 208.092 85.4374 207.847 85.3124C207.602 85.1873 207.391 85.0061 207.23 84.7834Z" fill="#2F2E41"/>
<path d="M162.62 16.1025C154.867 9.56028 145.38 5.41261 135.312 4.16418C125.245 2.91574 115.032 4.62038 105.915 9.07066C96.7992 13.5209 89.1729 20.525 83.9647 29.2305C78.7565 37.936 76.1909 47.9676 76.58 58.1047C76.9692 68.2418 80.2964 78.0472 86.1567 86.3278C92.017 94.6084 100.158 101.007 109.588 104.745C119.019 108.484 129.333 109.4 139.275 107.384C149.217 105.367 158.359 100.504 165.587 93.3868L229.778 147.55C230.754 148.376 232.019 148.78 233.293 148.673C234.568 148.566 235.748 147.958 236.574 146.981C237.399 146.004 237.803 144.74 237.696 143.465C237.59 142.191 236.981 141.011 236.004 140.185L235.997 140.179L171.807 86.0157C179.264 75.3135 182.455 62.2123 180.756 49.2796C179.057 36.3469 172.589 24.515 162.62 16.1025V16.1025ZM158.482 80.8001C153.482 86.7266 146.836 91.0371 139.385 93.1865C131.935 95.3359 124.014 95.2277 116.625 92.8756C109.236 90.5235 102.711 86.0332 97.8738 79.9724C93.0369 73.9116 90.1057 66.5525 89.4511 58.8259C88.7965 51.0992 90.4479 43.352 94.1963 36.5639C97.9447 29.7757 103.622 24.2515 110.51 20.6899C117.398 17.1283 125.187 15.6891 132.893 16.5545C140.599 17.4199 147.875 20.5509 153.802 25.5516H153.802C157.737 28.8719 160.979 32.9348 163.344 37.5083C165.709 42.0817 167.15 47.0762 167.584 52.2065C168.019 57.3368 167.439 62.5025 165.877 67.4086C164.315 72.3147 161.803 76.8651 158.482 80.8001V80.8001Z" fill="#3F3D56"/>
<path opacity="0.3" d="M103.234 85.4808C95.7124 79.1337 90.853 70.1901 89.6205 60.426C88.388 50.6619 90.8725 40.7913 96.5808 32.7743C95.8311 33.5292 95.1064 34.3199 94.4067 35.1462C91.0863 39.0812 88.5736 43.6317 87.0118 48.5378C85.4501 53.4439 84.87 58.6096 85.3046 63.7399C85.7393 68.8702 87.1801 73.8647 89.545 78.4381C91.9098 83.0116 95.1523 87.0745 99.0873 90.3948C103.022 93.7152 107.573 96.2279 112.479 97.7897C117.385 99.3514 122.551 99.9315 127.681 99.4969C132.811 99.0622 137.806 97.6214 142.379 95.2565C146.953 92.8917 151.016 89.6492 154.336 85.7142C155.034 84.8868 155.691 84.0394 156.308 83.1721C149.366 90.1477 140.054 94.2573 130.222 94.685C120.389 95.1127 110.756 91.8272 103.234 85.4808V85.4808Z" fill="black"/>
<path d="M211.223 125.783C211.776 125.919 212.353 125.931 212.912 125.819C213.47 125.708 213.998 125.475 214.457 125.138C214.916 124.8 215.296 124.366 215.569 123.866C215.842 123.366 216.002 122.812 216.038 122.244L229.384 118.539L223.959 113.81L212.117 118.052C211.158 118.055 210.233 118.41 209.518 119.049C208.803 119.688 208.347 120.568 208.236 121.521C208.126 122.474 208.369 123.434 208.92 124.22C209.47 125.005 210.29 125.562 211.223 125.783V125.783Z" fill="#FFB8B8"/>
<path d="M216.77 123.823L215.958 116.107L227.105 109.957L219.837 101.159L221.023 91.2757L223.977 90.01L224.069 90.1281C225.461 91.9188 237.675 107.678 237.675 109.626C237.675 111.627 235.338 117.503 232.141 119.101C229.058 120.643 217.479 123.64 216.988 123.767L216.77 123.823Z" fill="#2F2E41"/>
<path d="M274.612 216.499H126.945C126.842 216.499 126.743 216.458 126.671 216.386C126.598 216.313 126.557 216.214 126.557 216.112C126.557 216.009 126.598 215.91 126.671 215.838C126.743 215.765 126.842 215.724 126.945 215.724H274.612C274.715 215.724 274.814 215.765 274.887 215.838C274.959 215.91 275 216.009 275 216.112C275 216.214 274.959 216.313 274.887 216.386C274.814 216.458 274.715 216.499 274.612 216.499Z" fill="#CCCCCC"/>
</g>
<defs>
<clipPath id="clip0_510_504">
<rect width="275" height="216.499" fill="white"/>
</clipPath>
</defs>
</svg>
