<svg width="275" height="214" viewBox="0 0 275 214" fill="none" xmlns="http://www.w3.org/2000/svg">
<g clip-path="url(#clip0_510_318)">
<path opacity="0.1" d="M223.068 28.353V142.782C223.069 146.506 222.336 150.193 220.911 153.634C219.487 157.074 217.399 160.2 214.765 162.833C212.132 165.466 209.006 167.554 205.566 168.979C202.126 170.403 198.438 171.136 194.715 171.135H80.2855C73.8787 171.144 67.6592 168.975 62.6473 164.984C60.5729 163.332 58.7382 161.399 57.1957 159.242C53.7715 154.436 51.9316 148.683 51.9325 142.782V28.353C51.9325 27.5942 51.9621 26.8434 52.0213 26.1008C52.1342 24.6503 52.36 23.2109 52.6967 21.7955C54.1736 15.589 57.7 10.0617 62.7062 6.10679C67.7123 2.15189 73.9056 0.000412977 80.2855 0H194.715C201.094 0.000412977 207.288 2.15189 212.294 6.10679C217.3 10.0617 220.826 15.589 222.303 21.7955C222.64 23.2109 222.866 24.6503 222.979 26.1008C223.038 26.8434 223.068 27.5942 223.068 28.353Z" fill="#C5C5C7"/>
<path opacity="0.1" d="M139.653 90.1419H223.068V94.4472H139.653V124.315H223.068V128.62H139.653V171.135H135.347V128.62H51.9325V124.315H135.347V94.4472H51.9325V90.1419H135.347V60.274H51.9325V55.9687H135.347V26.1008H52.0213C52.1342 24.6503 52.36 23.2109 52.6967 21.7955H135.347V0H139.653V21.7955H222.303C222.64 23.2109 222.866 24.6503 222.979 26.1008H139.653V55.9687H223.068V60.274H139.653V90.1419Z" fill="#C5C5C7"/>
<path opacity="0.1" d="M137.5 213.919C213.439 213.919 275 204.261 275 192.347C275 180.433 213.439 170.774 137.5 170.774C61.5608 170.774 0 180.433 0 192.347C0 204.261 61.5608 213.919 137.5 213.919Z" fill="#C5C5C7"/>
<path d="M242.899 184.592C246.659 184.592 249.707 184.005 249.707 183.281C249.707 182.558 246.659 181.971 242.899 181.971C239.139 181.971 236.091 182.558 236.091 183.281C236.091 184.005 239.139 184.592 242.899 184.592Z" fill="#C5C5C7"/>
<path d="M242.786 183.766C243.224 183.766 243.58 183.301 243.58 182.727C243.58 182.153 243.224 181.688 242.786 181.688C242.347 181.688 241.992 182.153 241.992 182.727C241.992 183.301 242.347 183.766 242.786 183.766Z" fill="#3F3D56"/>
<path d="M242.786 182.496C243.224 182.496 243.58 182.031 243.58 181.457C243.58 180.883 243.224 180.418 242.786 180.418C242.347 180.418 241.992 180.883 241.992 181.457C241.992 182.031 242.347 182.496 242.786 182.496Z" fill="#3F3D56"/>
<path d="M242.786 181.228C243.224 181.228 243.58 180.763 243.58 180.19C243.58 179.616 243.224 179.151 242.786 179.151C242.347 179.151 241.992 179.616 241.992 180.19C241.992 180.763 242.347 181.228 242.786 181.228Z" fill="#3F3D56"/>
<path d="M242.786 179.961C243.224 179.961 243.58 179.496 243.58 178.922C243.58 178.349 243.224 177.884 242.786 177.884C242.347 177.884 241.992 178.349 241.992 178.922C241.992 179.496 242.347 179.961 242.786 179.961Z" fill="#3F3D56"/>
<path d="M242.786 178.691C243.224 178.691 243.58 178.226 243.58 177.652C243.58 177.079 243.224 176.614 242.786 176.614C242.347 176.614 241.992 177.079 241.992 177.652C241.992 178.226 242.347 178.691 242.786 178.691Z" fill="#3F3D56"/>
<path d="M242.786 177.423C243.224 177.423 243.58 176.958 243.58 176.385C243.58 175.811 243.224 175.346 242.786 175.346C242.347 175.346 241.992 175.811 241.992 176.385C241.992 176.958 242.347 177.423 242.786 177.423Z" fill="#3F3D56"/>
<path d="M242.786 176.156C243.224 176.156 243.58 175.691 243.58 175.117C243.58 174.544 243.224 174.079 242.786 174.079C242.347 174.079 241.992 174.544 241.992 175.117C241.992 175.691 242.347 176.156 242.786 176.156Z" fill="#3F3D56"/>
<path d="M245.751 166.44C245.86 166.302 245.959 166.156 246.047 166.004L243.964 165.662L246.216 165.678C246.432 165.208 246.55 164.699 246.562 164.181C246.575 163.664 246.482 163.15 246.289 162.67L243.267 164.239L246.055 162.188C245.795 161.734 245.444 161.339 245.024 161.027C244.604 160.716 244.125 160.494 243.615 160.376C243.105 160.258 242.577 160.247 242.063 160.342C241.549 160.438 241.06 160.639 240.627 160.933C240.194 161.226 239.826 161.606 239.547 162.048C239.268 162.49 239.082 162.985 239.003 163.502C238.924 164.019 238.952 164.547 239.086 165.052C239.221 165.558 239.458 166.03 239.783 166.44C239.614 166.654 239.469 166.886 239.35 167.131L242.04 168.536L239.158 167.567C238.955 168.165 238.905 168.805 239.011 169.427C239.118 170.05 239.379 170.636 239.769 171.132C239.329 171.692 239.055 172.365 238.978 173.074C238.902 173.782 239.027 174.498 239.338 175.139C239.649 175.779 240.135 176.32 240.739 176.698C241.343 177.076 242.041 177.276 242.753 177.276C243.466 177.276 244.164 177.076 244.768 176.698C245.372 176.32 245.857 175.779 246.169 175.139C246.48 174.498 246.605 173.782 246.528 173.074C246.452 172.365 246.178 171.692 245.737 171.132C246.264 170.464 246.55 169.637 246.55 168.786C246.55 167.935 246.264 167.108 245.737 166.44H245.751Z" fill="#C5C5C7"/>
<path opacity="0.1" d="M238.97 168.786C238.968 169.637 239.252 170.463 239.777 171.132C239.337 171.692 239.063 172.365 238.987 173.073C238.91 173.782 239.035 174.498 239.346 175.138C239.658 175.779 240.143 176.32 240.747 176.698C241.351 177.076 242.049 177.276 242.762 177.276C243.474 177.276 244.172 177.076 244.776 176.698C245.38 176.32 245.865 175.779 246.177 175.138C246.488 174.498 246.613 173.782 246.536 173.073C246.46 172.365 246.186 171.692 245.746 171.132C246.26 170.487 238.97 168.361 238.97 168.786Z" fill="black"/>
<path d="M217.82 149.878H55.5651V187.145H217.82V149.878Z" fill="#46455B"/>
<path d="M56.6414 111.265L41.3038 122.835L53.1434 133.598L59.8704 122.835L69.0191 111.265H56.6414Z" fill="#46455B"/>
<path d="M215.13 125.257L212.977 122.835L199.254 115.032L211.901 114.763L231.544 122.835L223.471 127.948L215.13 125.257Z" fill="#46455B"/>
<path d="M55.5651 125.795L69.0191 111.265V144.631L59.8704 152.165L54.2197 144.362L55.5651 125.795Z" fill="#46455B"/>
<path d="M215.399 131.715L212.977 122.835L208.403 116.915L199.254 115.032V152.165H217.82L215.399 131.715Z" fill="#46455B"/>
<path d="M71.9924 101.309H197.626C198.736 101.309 199.8 101.75 200.585 102.534C201.369 103.319 201.81 104.383 201.81 105.493V143.823H67.8082V105.493C67.8082 104.383 68.2491 103.319 69.0338 102.534C69.8184 101.75 70.8827 101.309 71.9924 101.309V101.309Z" fill="#46455B"/>
<path d="M59.8704 152.165L69.0191 140.864H199.254L212.977 152.165H59.8704Z" fill="#46455B"/>
<path opacity="0.05" d="M59.8704 152.165L69.0191 140.864H199.254L212.977 152.165H59.8704Z" fill="black"/>
<path d="M59.8704 122.835H41.3038V187.145H59.8704V122.835Z" fill="#46455B"/>
<path opacity="0.05" d="M59.8704 122.835H41.3038V187.145H59.8704V122.835Z" fill="white"/>
<path d="M231.544 122.835H212.977V187.145H231.544V122.835Z" fill="#46455B"/>
<path opacity="0.05" d="M231.544 122.835H212.977V187.145H231.544V122.835Z" fill="white"/>
<path d="M118.395 110.861C130.284 110.861 139.922 98.1513 139.922 82.473C139.922 66.7948 130.284 54.0851 118.395 54.0851C106.507 54.0851 96.8689 66.7948 96.8689 82.473C96.8689 98.1513 106.507 110.861 118.395 110.861Z" fill="#2F2E41"/>
<path d="M127.813 70.23H103.865V103.596H127.813V70.23Z" fill="#2F2E41"/>
<path opacity="0.1" d="M127.813 70.23H103.865V103.596H127.813V70.23Z" fill="black"/>
<path d="M105.603 89.7975C104.854 90.71 103.887 91.4187 102.791 91.858C101.695 92.2973 100.506 92.453 99.3336 92.3107C99.226 93.9843 100.362 95.4535 101.435 96.7424L109.839 106.825C109.872 106.905 109.926 106.974 109.996 107.025C110.066 107.076 110.148 107.107 110.234 107.114C110.32 107.121 110.407 107.105 110.484 107.066C110.562 107.027 110.627 106.968 110.673 106.895L123.508 94.7189C122.227 95.2571 120.712 94.4041 120.01 93.204C119.307 92.0039 119.238 90.5616 119.173 89.1678C119.08 87.0869 118.99 85.0078 118.904 82.9305C118.882 82.4677 118.837 81.9565 118.495 81.6443C118.229 81.4442 117.912 81.3238 117.58 81.2972C115.554 80.9501 109.238 79.1446 108.068 81.2757C107.53 82.2471 107.772 84.1414 107.53 85.2392C107.167 86.8672 106.653 88.4897 105.603 89.7975Z" fill="#FBBEBE"/>
<path opacity="0.1" d="M105.603 89.7975C104.854 90.71 103.887 91.4187 102.791 91.858C101.695 92.2973 100.506 92.453 99.3336 92.3107C99.226 93.9843 100.362 95.4535 101.435 96.7424L109.839 106.825C109.872 106.905 109.926 106.974 109.996 107.025C110.066 107.076 110.148 107.107 110.234 107.114C110.32 107.121 110.407 107.105 110.484 107.066C110.562 107.027 110.627 106.968 110.673 106.895L123.508 94.7189C122.227 95.2571 120.712 94.4041 120.01 93.204C119.307 92.0039 119.238 90.5616 119.173 89.1678C119.08 87.0869 118.99 85.0078 118.904 82.9305C118.882 82.4677 118.837 81.9565 118.495 81.6443C118.229 81.4442 117.912 81.3238 117.58 81.2972C115.554 80.9501 109.238 79.1446 108.068 81.2757C107.53 82.2471 107.772 84.1414 107.53 85.2392C107.167 86.8672 106.653 88.4897 105.603 89.7975Z" fill="black"/>
<path d="M114.897 87.7202C121.882 87.7202 127.544 82.058 127.544 75.0734C127.544 68.0888 121.882 62.4266 114.897 62.4266C107.913 62.4266 102.25 68.0888 102.25 75.0734C102.25 82.058 107.913 87.7202 114.897 87.7202Z" fill="#FBBEBE"/>
<path d="M110.323 100.539L108.294 94.1431C107.487 91.5814 106.34 88.6781 103.784 87.852C102.17 87.3354 100.429 87.8089 98.747 87.6663C95.475 87.3838 92.2891 84.7818 89.2297 85.9738C85.4625 87.4376 85.4948 93.2228 82.1502 95.4939C82.1502 100.9 83.8965 105.921 84.841 111.24C85.7854 116.56 86.0572 122.302 83.5924 127.116C82.5484 129.156 81.055 130.932 79.941 132.934C78.1148 136.235 77.3677 140.025 77.8045 143.772C92.0873 143.952 106.372 143.995 120.658 143.901C120.526 142.05 119.7 140.226 119.566 138.375C119.485 137.816 119.529 137.246 119.695 136.706C120.01 135.899 120.812 135.417 121.498 134.893C122.417 134.184 123.196 133.31 123.793 132.315C124.746 130.73 125.198 128.903 125.639 127.105L130.988 105.31C131.626 102.713 132.245 99.8799 131.136 97.4474C129.92 94.7754 127.003 93.387 124.31 92.2165C122.695 91.5088 120.839 90.793 119.197 91.4442C117.852 91.9824 117.007 93.2713 116.157 94.4391C114.511 96.7391 112.547 98.7931 110.323 100.539V100.539Z" fill="#F86D70"/>
<path opacity="0.1" d="M82.0076 97.4124C81.5878 98.9838 81.8219 100.663 81.5125 102.256C80.9932 104.922 79.0477 107.043 77.7454 109.421C75.727 113.115 75.216 117.447 76.3192 121.509C76.6475 122.695 77.2314 123.965 78.3831 124.401C79.2065 124.716 80.1267 124.52 81.0066 124.598C82.169 124.7 83.3772 125.276 84.4508 124.818C85.7774 124.253 86.0411 122.528 86.1864 121.094C86.5212 117.768 87.2372 114.492 88.3202 111.329C89.3965 108.165 90.8738 105.025 90.8523 101.68C90.8361 99.3229 87.817 101.492 85.8474 100.095C83.6248 98.5291 82.7368 94.6974 82.0076 97.4124Z" fill="black"/>
<path d="M81.4694 97.1433C81.0496 98.7147 81.2837 100.394 80.9743 101.987C80.455 104.653 78.5095 106.774 77.2072 109.152C75.1888 112.846 74.6778 117.177 75.781 121.239C76.1093 122.426 76.6932 123.696 77.8449 124.132C78.6683 124.447 79.5885 124.25 80.4684 124.328C81.6308 124.431 82.839 125.007 83.9126 124.549C85.2392 123.984 85.5029 122.259 85.6482 120.825C85.983 117.499 86.699 114.223 87.782 111.06C88.8583 107.896 90.3356 104.756 90.3141 101.411C90.2979 99.0538 89.262 96.4491 87.2923 95.0526C85.0697 93.4865 82.1986 94.4283 81.4694 97.1433Z" fill="#F86D70"/>
<path d="M99.8826 82.3466C101.497 81.4425 103.087 80.463 104.75 79.6235C107.35 78.3238 110.272 77.3094 112.317 75.3182C112.422 75.2178 112.551 75.1459 112.692 75.1096C112.833 75.0732 112.981 75.0735 113.122 75.1105C113.263 75.1474 113.392 75.2198 113.497 75.3207C113.602 75.4216 113.679 75.5476 113.721 75.6868C114.601 78.5526 115.642 81.3663 116.84 84.1144C117.873 86.4823 119.025 88.8072 119.8 91.272C120.338 92.986 120.674 94.77 121.344 96.4195C122.219 98.5721 123.615 100.488 125.001 102.366C125.51 103.06 126.035 103.765 126.748 104.25C127.749 104.93 129.242 105.366 129.347 106.572C128.047 107.511 126.279 107.202 124.678 107.188C123.077 107.175 121.449 107.506 119.867 107.896C118.019 108.317 116.216 108.919 114.486 109.693C112.801 110.487 111.257 111.531 109.696 112.57L95.389 122.168C94.3369 120.965 94.3772 119.208 94.1512 117.615C93.9583 116.469 93.6813 115.338 93.3224 114.233L91.8963 109.43C91.2182 107.148 90.5509 104.869 89.7867 102.611C89.1571 100.727 88.4575 98.8251 87.2251 97.2698C85.7398 95.3862 83.6033 94.1646 81.7493 92.6497C81.0927 92.1115 80.4442 91.498 80.1994 90.6854C80.1181 90.4201 80.0953 90.1403 80.1324 89.8653C80.1696 89.5903 80.2659 89.3266 80.4147 89.0924C80.8075 88.5247 81.3699 88.6081 81.9942 88.5085C83.5171 88.2663 85.0276 87.9605 86.5255 87.591C89.4969 86.8536 92.4014 85.8689 95.2087 84.6472C96.8034 83.9584 98.3614 83.1915 99.8826 82.3466Z" fill="#BBBDC8"/>
<path opacity="0.1" d="M100.469 84.3378C101.887 83.5521 103.265 82.691 104.715 81.9645C106.986 80.829 109.532 79.9464 111.316 78.2162C111.407 78.1278 111.52 78.0644 111.643 78.0321C111.767 77.9998 111.896 77.9997 112.019 78.0319C112.142 78.064 112.255 78.1273 112.347 78.2157C112.439 78.304 112.506 78.4145 112.543 78.5364C113.31 81.0363 114.218 83.4907 115.263 85.8877C116.165 87.9542 117.168 89.9831 117.838 92.133C118.301 93.6264 118.6 95.1737 119.184 96.624C119.945 98.5076 121.167 100.173 122.372 101.812C122.784 102.441 123.299 102.996 123.895 103.453C124.772 104.048 126.075 104.427 126.164 105.482C125.031 106.289 123.489 106.02 122.092 106.02C120.674 106.049 119.264 106.257 117.897 106.639C116.286 107.006 114.715 107.532 113.207 108.208C111.753 108.94 110.356 109.782 109.029 110.726L96.5459 119.087C95.6284 118.037 95.6661 116.496 95.4696 115.112C95.3024 114.109 95.0613 113.12 94.7485 112.153L93.5026 107.963C92.9107 105.972 92.3187 103.983 91.6621 102.014C91.124 100.37 90.5051 98.7121 89.4288 97.3532C88.1318 95.7145 86.2698 94.6463 84.6499 93.317C84.0795 92.8515 83.5117 92.3133 83.3045 91.6056C83.2335 91.3744 83.2136 91.1304 83.2461 90.8907C83.2786 90.651 83.3628 90.4212 83.4929 90.2172C83.8346 89.7194 84.327 89.792 84.8706 89.7059C86.1998 89.4961 87.5174 89.227 88.8233 88.8987C91.4158 88.2573 93.9497 87.3986 96.398 86.3317C97.7882 85.7325 99.1453 85.0679 100.469 84.3378Z" fill="black"/>
<path d="M95.2464 95.292C95.8408 95.292 96.3227 94.8102 96.3227 94.2157C96.3227 93.6213 95.8408 93.1394 95.2464 93.1394C94.6519 93.1394 94.17 93.6213 94.17 94.2157C94.17 94.8102 94.6519 95.292 95.2464 95.292Z" fill="#BBBDC8"/>
<path d="M106.723 89.9777C107.317 89.9777 107.799 89.4958 107.799 88.9014C107.799 88.307 107.317 87.8251 106.723 87.8251C106.128 87.8251 105.646 88.307 105.646 88.9014C105.646 89.4958 106.128 89.9777 106.723 89.9777Z" fill="#BBBDC8"/>
<path d="M100.674 107.013C101.268 107.013 101.75 106.531 101.75 105.937C101.75 105.342 101.268 104.861 100.674 104.861C100.079 104.861 99.5974 105.342 99.5974 105.937C99.5974 106.531 100.079 107.013 100.674 107.013Z" fill="#BBBDC8"/>
<path d="M112.15 101.699C112.744 101.699 113.226 101.217 113.226 100.623C113.226 100.028 112.744 99.5463 112.15 99.5463C111.555 99.5463 111.074 100.028 111.074 100.623C111.074 101.217 111.555 101.699 112.15 101.699Z" fill="#BBBDC8"/>
<path d="M84.0311 112.702C85.1074 112.392 86.2403 112.053 87.0314 111.259C87.6449 110.64 87.9866 109.809 88.4171 109.05C89.2755 107.535 90.6343 106.193 92.343 105.859C94.0517 105.525 96.059 106.513 96.425 108.216C96.6617 109.325 96.1989 110.452 95.7388 111.491C95.05 113.046 94.2723 114.677 92.8516 115.616C91.6084 116.436 90.0235 116.617 88.8019 117.47C87.7256 118.223 87.0475 119.415 86.1111 120.343C84.887 121.549 83.2678 122.271 81.5529 122.375C81.2925 122.406 81.0286 122.37 80.786 122.27C80.5484 122.129 80.3489 121.933 80.2048 121.697C79.4137 120.621 78.6118 119.512 78.1921 118.239C76.731 113.802 80.8667 113.608 84.0311 112.702Z" fill="#FBBEBE"/>
<path d="M112.699 113.294C112.336 111.125 112.287 108.76 110.947 107.016C109.825 105.56 107.96 104.823 106.125 104.699C105.587 104.662 104.955 104.715 104.643 105.157C104.465 105.468 104.394 105.829 104.441 106.184C104.554 108.94 105.582 111.58 107.363 113.686C108.033 114.472 108.811 115.188 109.279 116.108C109.688 116.902 109.839 117.809 110.218 118.616C110.713 119.668 111.563 120.5 112.215 121.468C113.138 122.856 113.616 124.492 113.587 126.158C114.297 124.999 114.211 123.548 114.278 122.189C114.367 120.276 115.707 119.23 114.838 117.669C113.969 116.108 113.014 115.191 112.699 113.294Z" fill="#FBBEBE"/>
<path opacity="0.1" d="M122.631 111.133C121.95 112.909 121.6 114.808 120.798 116.533C120.587 117.073 120.224 117.54 119.754 117.879C118.893 118.417 117.755 118.083 116.899 117.548C116.044 117.012 115.285 116.275 114.351 115.92C113.931 120.007 110.536 123.605 106.478 124.261C108.9 126.487 111.45 128.959 111.997 132.199C112.099 132.794 112.134 133.426 112.451 133.94C112.963 134.761 114.042 135.03 115.01 135.016C117.472 134.998 119.73 133.698 121.786 132.326C122.48 131.868 123.182 131.378 123.645 130.69C124.108 130.001 124.307 129.126 124.482 128.292C125.671 122.64 126.86 116.984 128.047 111.327C128.37 109.79 128.316 106.771 125.932 107.075C124.315 107.312 123.131 109.833 122.631 111.133Z" fill="black"/>
<path d="M123.169 111.133C122.488 112.909 122.138 114.808 121.336 116.533C121.125 117.073 120.762 117.54 120.292 117.879C119.431 118.417 118.293 118.083 117.437 117.548C116.582 117.012 115.823 116.275 114.889 115.92C114.469 120.007 111.074 123.605 107.016 124.261C109.438 126.487 111.988 128.959 112.535 132.199C112.637 132.794 112.672 133.426 112.989 133.94C113.501 134.761 114.58 135.03 115.548 135.016C118.01 134.998 120.268 133.698 122.324 132.326C123.018 131.868 123.72 131.378 124.183 130.69C124.646 130.001 124.845 129.126 125.02 128.292C126.209 122.64 127.398 116.984 128.585 111.327C128.908 109.79 128.854 106.771 126.47 107.075C124.853 107.312 123.669 109.833 123.169 111.133Z" fill="#F86D70"/>
<path d="M83.9153 121.627C83.8185 122.119 83.3314 122.418 82.8901 122.655C82.0371 123.115 81.1088 123.591 80.1482 123.462C79.1876 123.333 78.383 122.623 77.7534 121.869C77.4397 121.511 77.1688 121.117 76.9461 120.696C75.9748 118.777 75.8698 110.614 79.8845 113.277C81.542 114.381 80.6083 116.264 80.8155 117.887C80.9061 118.849 81.2903 119.76 81.9161 120.497C82.0371 120.637 83.8534 121.944 83.9153 121.627Z" fill="#F86D70"/>
<path d="M118.261 72.1135C124.874 72.1135 130.235 69.5836 130.235 66.4628C130.235 63.342 124.874 60.8121 118.261 60.8121C111.648 60.8121 106.287 63.342 106.287 66.4628C106.287 69.5836 111.648 72.1135 118.261 72.1135Z" fill="#2F2E41"/>
<path opacity="0.1" d="M118.799 70.2299C112.319 70.2299 107.048 67.8082 106.836 64.7676C106.492 65.2667 106.305 65.8568 106.297 66.4628C106.297 69.5841 111.658 72.1135 118.272 72.1135C124.886 72.1135 130.246 69.5841 130.246 66.4628C130.246 66.3982 130.246 66.3363 130.246 66.2744C128.698 68.567 124.162 70.2299 118.799 70.2299Z" fill="black"/>
<path d="M170.866 110.323C187.213 110.323 200.465 98.2758 200.465 83.4149C200.465 68.554 187.213 56.5068 170.866 56.5068C154.519 56.5068 141.267 68.554 141.267 83.4149C141.267 98.2758 154.519 110.323 170.866 110.323Z" fill="#2F2E41"/>
<path opacity="0.1" d="M170.866 103.327C155.875 103.327 143.487 93.1933 141.536 80.0514C141.358 81.2541 141.268 82.4682 141.267 83.684C141.267 98.5453 154.519 110.592 170.866 110.592C187.213 110.592 200.465 98.5453 200.465 83.684C200.464 82.4682 200.374 81.2541 200.196 80.0514C198.245 93.1933 185.856 103.327 170.866 103.327Z" fill="black"/>
<path d="M170.328 103.596C178.204 103.596 184.589 94.9822 184.589 84.3567C184.589 73.7311 178.204 65.1174 170.328 65.1174C162.452 65.1174 156.067 73.7311 156.067 84.3567C156.067 94.9822 162.452 103.596 170.328 103.596Z" fill="#2F2E41"/>
<path opacity="0.1" d="M170.328 103.596C178.204 103.596 184.589 94.9822 184.589 84.3567C184.589 73.7311 178.204 65.1174 170.328 65.1174C162.452 65.1174 156.067 73.7311 156.067 84.3567C156.067 94.9822 162.452 103.596 170.328 103.596Z" fill="black"/>
<path d="M163.77 94.1082C163.232 95.4374 162.156 96.8501 160.541 96.9524C162.694 98.7202 164.874 100.507 167.446 101.796C170.018 103.085 173.064 103.841 175.992 103.378C178.059 103.052 179.937 102.146 181.691 101.153C184.678 99.4629 187.611 97.243 188.367 94.2346C186.124 94.3473 183.877 94.305 181.64 94.1082C180.48 94.0086 179.294 93.8552 178.287 93.3494C177.669 93.0233 177.123 92.5767 176.681 92.0359C176.239 91.4952 175.909 90.8713 175.712 90.2011C175.311 88.9311 175.319 87.5937 175.392 86.2779C175.432 85.5111 175.462 84.6635 174.873 84.0769C174.283 83.4903 173.309 83.4122 172.424 83.3934C170.643 83.3573 168.863 83.4625 167.099 83.7082C166.174 83.8042 165.257 83.9706 164.357 84.206C163.189 84.5612 163.299 84.424 163.582 85.4007C164.459 88.3929 164.995 91.0837 163.77 94.1082Z" fill="#A0616A"/>
<path opacity="0.1" d="M163.77 94.1082C163.232 95.4374 162.156 96.8501 160.541 96.9524C162.694 98.7202 164.874 100.507 167.446 101.796C170.018 103.085 173.064 103.841 175.992 103.378C178.059 103.052 179.937 102.146 181.691 101.153C184.678 99.4629 187.611 97.243 188.367 94.2346C186.124 94.3473 183.877 94.305 181.64 94.1082C180.48 94.0086 179.294 93.8552 178.287 93.3494C177.669 93.0233 177.123 92.5767 176.681 92.0359C176.239 91.4952 175.909 90.8713 175.712 90.2011C175.311 88.9311 175.319 87.5937 175.392 86.2779C175.432 85.5111 175.462 84.6635 174.873 84.0769C174.283 83.4903 173.309 83.4122 172.424 83.3934C170.643 83.3573 168.863 83.4625 167.099 83.7082C166.174 83.8042 165.257 83.9706 164.357 84.206C163.189 84.5612 163.299 84.424 163.582 85.4007C164.459 88.3929 164.995 91.0837 163.77 94.1082Z" fill="black"/>
<path d="M169.924 91.3527C176.909 91.3527 182.571 85.6906 182.571 78.706C182.571 71.7214 176.909 66.0592 169.924 66.0592C162.939 66.0592 157.277 71.7214 157.277 78.706C157.277 85.6906 162.939 91.3527 169.924 91.3527Z" fill="#A0616A"/>
<path d="M165.565 95.2221C164.739 94.2319 163.889 93.2202 162.788 92.5475C160.985 91.4416 158.752 91.3716 156.64 91.3366C154.35 91.2963 151.861 91.3178 150.05 92.7197C149.243 93.352 148.624 94.2185 148.034 95.0688L140.363 106.101C140.064 106.532 139.749 107.019 139.825 107.538C139.911 107.912 140.097 108.255 140.363 108.531L148.801 119.068C149.283 119.668 149.781 120.3 149.942 121.054C150.104 121.807 149.905 122.598 149.646 123.33C148.626 126.234 146.686 128.981 146.864 132.04C146.99 134.037 148.034 135.872 149.313 137.422C152.246 140.955 156.467 143.253 160.883 144.507C165.299 145.761 169.935 146.035 174.528 146.065C183.187 146.121 192.287 145.177 199.44 140.293L193.818 134.998C192.707 133.948 191.542 132.818 191.157 131.338C190.888 130.342 191.017 129.293 191.138 128.273C191.364 126.409 191.59 124.53 192.193 122.754C193.87 117.806 198.178 114.284 201.051 109.922C201.412 109.384 201.762 108.765 201.721 108.111C201.689 107.559 201.382 107.067 201.084 106.604C199.77 104.567 198.409 102.541 197.456 100.313C196.746 98.6556 196.264 96.8931 195.384 95.319C194.505 93.7449 193.108 92.3295 191.348 91.9986C189.083 91.5734 186.873 92.9915 184.573 93.0883C182.888 93.161 181.131 92.5287 179.557 93.1287C177.69 93.8418 176.866 95.946 175.82 97.6546C175.047 98.9274 172.744 102.409 170.939 101.554C169.956 101.085 169.055 99.401 168.35 98.5749L165.565 95.2221Z" fill="#F98A8D"/>
<path d="M175.639 103.776C175.213 103.536 174.718 103.447 174.235 103.523C173.996 103.569 173.779 103.693 173.618 103.875C173.457 104.057 173.361 104.287 173.344 104.53L172.566 104.484C172.477 104.474 172.386 104.479 172.297 104.497C172.185 104.522 172.087 104.59 172.025 104.686C171.962 104.783 171.941 104.9 171.965 105.013C171.989 105.125 172.057 105.223 172.154 105.286C172.251 105.348 172.368 105.369 172.48 105.345C172.099 105.496 171.758 105.736 171.487 106.045C171.284 106.35 171.21 106.723 171.281 107.083C171.351 107.442 171.561 107.76 171.864 107.966C172.182 108.149 172.557 108.209 172.916 108.136C173.276 108.063 173.596 107.861 173.818 107.568C173.772 107.728 173.785 107.9 173.854 108.052C173.923 108.204 174.044 108.327 174.194 108.399C175.653 109.187 176.395 108.116 176.595 106.876C176.821 105.514 177.111 104.503 175.639 103.776Z" fill="#FFE9B3"/>
<path opacity="0.15" d="M175.639 103.776C175.213 103.536 174.718 103.447 174.235 103.523C173.996 103.569 173.779 103.693 173.618 103.875C173.457 104.057 173.361 104.287 173.344 104.53L172.566 104.484C172.477 104.474 172.386 104.479 172.297 104.497C172.185 104.522 172.087 104.59 172.025 104.686C171.962 104.783 171.941 104.9 171.965 105.013C171.989 105.125 172.057 105.223 172.154 105.286C172.251 105.348 172.368 105.369 172.48 105.345C172.099 105.496 171.758 105.736 171.487 106.045C171.284 106.35 171.21 106.723 171.281 107.083C171.351 107.442 171.561 107.76 171.864 107.966C172.182 108.149 172.557 108.209 172.916 108.136C173.276 108.063 173.596 107.861 173.818 107.568C173.772 107.728 173.785 107.9 173.854 108.052C173.923 108.204 174.044 108.327 174.194 108.399C175.653 109.187 176.395 108.116 176.595 106.876C176.821 105.514 177.111 104.503 175.639 103.776Z" fill="black"/>
<path d="M179.611 102.861C179.185 102.621 178.69 102.532 178.206 102.611C177.968 102.656 177.751 102.779 177.591 102.961C177.43 103.142 177.334 103.373 177.319 103.615L176.541 103.569C176.451 103.56 176.36 103.564 176.272 103.582C176.167 103.615 176.077 103.686 176.021 103.781C175.965 103.876 175.946 103.988 175.968 104.096C175.996 104.203 176.064 104.295 176.157 104.354C176.25 104.414 176.362 104.436 176.471 104.417C176.09 104.569 175.749 104.808 175.478 105.116C175.276 105.422 175.202 105.794 175.272 106.154C175.343 106.514 175.552 106.831 175.855 107.037C176.173 107.221 176.547 107.282 176.908 107.209C177.268 107.136 177.589 106.935 177.811 106.642C177.765 106.802 177.778 106.973 177.846 107.125C177.915 107.276 178.035 107.399 178.185 107.471C179.646 108.262 180.386 107.202 180.588 105.95C180.795 104.6 181.091 103.588 179.611 102.861Z" fill="#FFE9B3"/>
<path d="M182.851 103.324C182.425 103.084 181.931 102.996 181.449 103.074C181.21 103.118 180.993 103.241 180.831 103.423C180.67 103.605 180.574 103.835 180.558 104.078L179.781 104.032C179.691 104.022 179.6 104.027 179.511 104.045C179.406 104.078 179.317 104.149 179.261 104.244C179.205 104.339 179.186 104.451 179.207 104.559C179.236 104.666 179.304 104.758 179.397 104.817C179.49 104.877 179.602 104.899 179.711 104.879C179.329 105.03 178.988 105.27 178.718 105.579C178.515 105.884 178.44 106.257 178.511 106.617C178.581 106.977 178.791 107.294 179.094 107.5C179.412 107.684 179.786 107.745 180.146 107.673C180.506 107.6 180.827 107.398 181.048 107.105C181.003 107.265 181.016 107.436 181.085 107.588C181.154 107.74 181.274 107.862 181.425 107.934C182.883 108.725 183.623 107.651 183.825 106.413C184.035 105.076 184.32 104.051 182.851 103.324Z" fill="#FFE9B3"/>
<path opacity="0.15" d="M182.851 103.324C182.425 103.084 181.931 102.996 181.449 103.074C181.21 103.118 180.993 103.241 180.831 103.423C180.67 103.605 180.574 103.835 180.558 104.078L179.781 104.032C179.691 104.022 179.6 104.027 179.511 104.045C179.406 104.078 179.317 104.149 179.261 104.244C179.205 104.339 179.186 104.451 179.207 104.559C179.236 104.666 179.304 104.758 179.397 104.817C179.49 104.877 179.602 104.899 179.711 104.879C179.329 105.03 178.988 105.27 178.718 105.579C178.515 105.884 178.44 106.257 178.511 106.617C178.581 106.977 178.791 107.294 179.094 107.5C179.412 107.684 179.786 107.745 180.146 107.673C180.506 107.6 180.827 107.398 181.048 107.105C181.003 107.265 181.016 107.436 181.085 107.588C181.154 107.74 181.274 107.862 181.425 107.934C182.883 108.725 183.623 107.651 183.825 106.413C184.035 105.076 184.32 104.051 182.851 103.324Z" fill="black"/>
<path d="M190.778 105.21V134.115C190.777 134.299 190.704 134.475 190.574 134.605C190.444 134.735 190.268 134.808 190.084 134.809H167.524C167.34 134.808 167.164 134.735 167.034 134.605C166.904 134.475 166.83 134.299 166.83 134.115V105.21C166.83 105.095 166.858 104.981 166.913 104.88C166.967 104.778 167.047 104.692 167.143 104.629C167.239 104.565 167.35 104.527 167.465 104.517C167.58 104.508 167.695 104.527 167.801 104.573C168.375 104.82 168.948 105.049 169.521 105.259C170.328 105.555 171.135 105.812 171.942 106.031C172.749 106.249 173.557 106.429 174.364 106.569C175.171 106.709 175.978 106.817 176.786 106.881C177.593 106.946 178.4 106.973 179.207 106.957C180.015 106.941 180.822 106.895 181.629 106.806C182.436 106.717 183.244 106.585 184.051 106.416C184.858 106.246 185.665 106.047 186.473 105.802C187.1 105.611 187.729 105.399 188.356 105.162C188.84 104.982 189.322 104.785 189.806 104.575C189.912 104.529 190.027 104.51 190.142 104.52C190.257 104.53 190.367 104.568 190.463 104.631C190.56 104.694 190.639 104.78 190.694 104.881C190.749 104.982 190.778 105.095 190.778 105.21V105.21Z" fill="#BBBDC8"/>
<path d="M171.942 106.031V134.823H169.521V105.259C170.328 105.555 171.135 105.812 171.942 106.031Z" fill="white"/>
<path d="M176.786 106.879V134.809H174.364V106.556C175.171 106.712 175.978 106.814 176.786 106.879Z" fill="white"/>
<path d="M181.629 106.803V134.809H179.207V106.959C180.015 106.945 180.822 106.893 181.629 106.803Z" fill="white"/>
<path d="M186.473 105.8V134.809H184.051V106.421C184.858 106.253 185.665 106.045 186.473 105.8Z" fill="white"/>
<path opacity="0.1" d="M190.778 105.21V134.115C190.777 134.299 190.704 134.475 190.574 134.605C190.444 134.735 190.268 134.808 190.084 134.809H188.356V105.159C188.841 104.979 189.322 104.782 189.807 104.573C189.912 104.527 190.028 104.508 190.143 104.517C190.258 104.527 190.368 104.565 190.465 104.629C190.561 104.692 190.64 104.778 190.695 104.88C190.75 104.981 190.778 105.095 190.778 105.21Z" fill="black"/>
<path d="M173.129 102.399C172.704 102.158 172.209 102.07 171.727 102.148C171.488 102.193 171.271 102.315 171.109 102.497C170.948 102.679 170.852 102.909 170.836 103.152L170.059 103.106C169.969 103.097 169.878 103.101 169.79 103.12C169.685 103.153 169.595 103.223 169.539 103.318C169.483 103.413 169.464 103.526 169.486 103.634C169.514 103.74 169.582 103.832 169.675 103.892C169.768 103.951 169.88 103.973 169.989 103.954C169.607 104.104 169.266 104.344 168.996 104.653C168.793 104.959 168.719 105.332 168.789 105.692C168.86 106.051 169.069 106.369 169.373 106.575C169.691 106.758 170.064 106.819 170.424 106.746C170.784 106.673 171.105 106.472 171.326 106.179C171.281 106.339 171.294 106.511 171.363 106.662C171.432 106.814 171.552 106.937 171.703 107.008C173.161 107.796 173.901 106.725 174.103 105.488C174.313 104.137 174.604 103.125 173.129 102.399Z" fill="#FFE9B3"/>
<path d="M177.165 97.8242C176.74 97.5841 176.245 97.4959 175.763 97.5739C175.524 97.6183 175.307 97.7411 175.146 97.9229C174.984 98.1047 174.888 98.3351 174.873 98.5776L174.095 98.5319C174.005 98.5223 173.914 98.5268 173.826 98.5453C173.721 98.5784 173.631 98.6491 173.575 98.744C173.519 98.8389 173.5 98.9512 173.522 99.0593C173.55 99.1659 173.618 99.2579 173.711 99.3172C173.804 99.3765 173.916 99.3987 174.025 99.3795C173.643 99.5301 173.302 99.7699 173.032 100.079C172.829 100.384 172.755 100.757 172.825 101.117C172.896 101.477 173.105 101.794 173.409 102C173.727 102.184 174.101 102.244 174.46 102.172C174.82 102.099 175.141 101.897 175.362 101.605C175.317 101.765 175.33 101.936 175.399 102.088C175.468 102.24 175.588 102.362 175.739 102.434C177.197 103.222 177.937 102.151 178.139 100.913C178.349 99.5624 178.64 98.5507 177.165 97.8242Z" fill="#FFE9B3"/>
<path d="M179.907 104.037C180.226 103.666 180.41 103.197 180.426 102.708C180.431 102.464 180.354 102.226 180.208 102.031C180.062 101.836 179.855 101.695 179.619 101.632L179.816 100.878C179.844 100.791 179.858 100.7 179.856 100.609C179.852 100.496 179.803 100.388 179.719 100.311C179.636 100.234 179.525 100.193 179.412 100.197C179.299 100.202 179.191 100.251 179.114 100.334C179.037 100.417 178.996 100.528 179 100.641C178.927 100.238 178.758 99.8578 178.508 99.5328C178.247 99.2751 177.895 99.1306 177.528 99.1306C177.162 99.1306 176.81 99.2751 176.549 99.5328C176.306 99.8081 176.172 100.163 176.172 100.53C176.172 100.897 176.306 101.251 176.549 101.527C176.4 101.451 176.229 101.431 176.067 101.469C175.904 101.508 175.76 101.602 175.661 101.737C174.604 103.012 175.51 103.948 176.686 104.387C177.972 104.861 178.909 105.345 179.907 104.037Z" fill="#FFE9B3"/>
<path d="M183.405 104.037C183.724 103.666 183.908 103.197 183.924 102.708C183.929 102.464 183.852 102.226 183.706 102.031C183.56 101.836 183.353 101.695 183.117 101.632L183.314 100.878C183.342 100.791 183.356 100.7 183.354 100.609C183.35 100.496 183.301 100.388 183.217 100.311C183.134 100.234 183.024 100.193 182.91 100.197C182.797 100.202 182.689 100.251 182.612 100.334C182.535 100.417 182.494 100.528 182.498 100.641C182.425 100.238 182.256 99.8578 182.006 99.5328C181.745 99.2751 181.393 99.1306 181.026 99.1306C180.66 99.1306 180.308 99.2751 180.047 99.5328C179.804 99.8081 179.67 100.163 179.67 100.53C179.67 100.897 179.804 101.251 180.047 101.527C179.898 101.451 179.727 101.431 179.565 101.469C179.402 101.508 179.259 101.602 179.159 101.737C178.102 103.012 179.008 103.948 180.184 104.387C181.47 104.861 182.407 105.345 183.405 104.037Z" fill="#FFE9B3"/>
<path d="M185.595 106.338C185.842 105.915 185.937 105.42 185.864 104.936C185.822 104.696 185.701 104.478 185.521 104.315C185.341 104.151 185.111 104.053 184.869 104.034L184.925 103.26C184.939 103.17 184.939 103.08 184.925 102.99C184.9 102.88 184.832 102.784 184.736 102.724C184.64 102.663 184.523 102.644 184.413 102.669C184.302 102.694 184.206 102.762 184.146 102.859C184.086 102.955 184.066 103.071 184.091 103.182C183.943 102.798 183.707 102.456 183.402 102.181C183.099 101.974 182.727 101.896 182.366 101.963C182.006 102.029 181.686 102.235 181.476 102.536C181.289 102.852 181.224 103.226 181.294 103.586C181.363 103.947 181.562 104.27 181.852 104.495C181.692 104.448 181.521 104.459 181.368 104.527C181.215 104.594 181.092 104.713 181.018 104.863C180.211 106.314 181.287 107.067 182.514 107.285C183.846 107.498 184.858 107.802 185.595 106.338Z" fill="#FFE9B3"/>
<path d="M174.832 102.033C175.079 101.609 175.174 101.115 175.101 100.631C175.059 100.391 174.938 100.173 174.758 100.009C174.578 99.8462 174.348 99.7476 174.106 99.7292L174.162 98.9542C174.176 98.8651 174.176 98.7743 174.162 98.6852C174.137 98.5746 174.069 98.4785 173.973 98.4182C173.876 98.3579 173.76 98.3383 173.65 98.3636C173.539 98.3889 173.443 98.4572 173.383 98.5533C173.322 98.6494 173.303 98.7656 173.328 98.8762C173.18 98.4931 172.944 98.1503 172.639 97.8752C172.336 97.6691 171.964 97.5908 171.603 97.6573C171.242 97.7237 170.922 97.9297 170.713 98.2304C170.526 98.5467 170.461 98.9204 170.53 99.2811C170.6 99.6419 170.799 99.9648 171.089 100.189C170.929 100.143 170.758 100.154 170.605 100.221C170.452 100.289 170.328 100.408 170.255 100.558C169.448 102.008 170.524 102.762 171.751 102.98C173.083 103.192 174.095 103.496 174.832 102.033Z" fill="#FFE9B3"/>
<path d="M175.909 100.547C175.482 100.307 174.987 100.218 174.504 100.294C174.265 100.34 174.048 100.464 173.887 100.646C173.726 100.828 173.63 101.058 173.613 101.301L172.836 101.255C172.746 101.245 172.655 101.25 172.567 101.268C172.454 101.293 172.356 101.361 172.294 101.457C172.231 101.554 172.21 101.671 172.234 101.784C172.259 101.896 172.326 101.994 172.423 102.057C172.52 102.119 172.637 102.14 172.75 102.116C172.368 102.267 172.028 102.507 171.757 102.816C171.554 103.121 171.479 103.494 171.55 103.854C171.62 104.213 171.83 104.531 172.133 104.737C172.452 104.92 172.826 104.98 173.185 104.907C173.545 104.834 173.866 104.632 174.087 104.339C174.041 104.499 174.054 104.671 174.123 104.823C174.192 104.975 174.313 105.098 174.464 105.17C175.922 105.958 176.665 104.887 176.864 103.647C177.09 102.285 177.38 101.274 175.909 100.547Z" fill="#FFE9B3"/>
<path opacity="0.15" d="M175.909 100.547C175.482 100.307 174.987 100.218 174.504 100.294C174.265 100.34 174.048 100.464 173.887 100.646C173.726 100.828 173.63 101.058 173.613 101.301L172.836 101.255C172.746 101.245 172.655 101.25 172.567 101.268C172.454 101.293 172.356 101.361 172.294 101.457C172.231 101.554 172.21 101.671 172.234 101.784C172.259 101.896 172.326 101.994 172.423 102.057C172.52 102.119 172.637 102.14 172.75 102.116C172.368 102.267 172.028 102.507 171.757 102.816C171.554 103.121 171.479 103.494 171.55 103.854C171.62 104.213 171.83 104.531 172.133 104.737C172.452 104.92 172.826 104.98 173.185 104.907C173.545 104.834 173.866 104.632 174.087 104.339C174.041 104.499 174.054 104.671 174.123 104.823C174.192 104.975 174.313 105.098 174.464 105.17C175.922 105.958 176.665 104.887 176.864 103.647C177.09 102.285 177.38 101.274 175.909 100.547Z" fill="black"/>
<path d="M187.482 101.473C187.056 101.232 186.56 101.144 186.077 101.223C185.838 101.267 185.621 101.39 185.46 101.572C185.299 101.754 185.203 101.984 185.186 102.226L184.411 102.181C184.322 102.171 184.231 102.176 184.142 102.194C184.037 102.227 183.948 102.298 183.892 102.393C183.836 102.488 183.817 102.6 183.838 102.708C183.867 102.815 183.934 102.907 184.028 102.966C184.121 103.025 184.233 103.047 184.342 103.028C183.96 103.18 183.62 103.42 183.349 103.728C183.146 104.033 183.072 104.406 183.143 104.766C183.213 105.125 183.423 105.443 183.725 105.649C184.043 105.832 184.417 105.893 184.777 105.82C185.137 105.747 185.457 105.546 185.679 105.253C185.634 105.414 185.647 105.585 185.716 105.737C185.784 105.888 185.905 106.011 186.056 106.082C187.514 106.871 188.257 105.8 188.456 104.559C188.663 103.211 188.954 102.199 187.482 101.473Z" fill="#FFE9B3"/>
<path opacity="0.15" d="M187.482 101.473C187.056 101.232 186.56 101.144 186.077 101.223C185.838 101.267 185.621 101.39 185.46 101.572C185.299 101.754 185.203 101.984 185.186 102.226L184.411 102.181C184.322 102.171 184.231 102.176 184.142 102.194C184.037 102.227 183.948 102.298 183.892 102.393C183.836 102.488 183.817 102.6 183.838 102.708C183.867 102.815 183.934 102.907 184.028 102.966C184.121 103.025 184.233 103.047 184.342 103.028C183.96 103.18 183.62 103.42 183.349 103.728C183.146 104.033 183.072 104.406 183.143 104.766C183.213 105.125 183.423 105.443 183.725 105.649C184.043 105.832 184.417 105.893 184.777 105.82C185.137 105.747 185.457 105.546 185.679 105.253C185.634 105.414 185.647 105.585 185.716 105.737C185.784 105.888 185.905 106.011 186.056 106.082C187.514 106.871 188.257 105.8 188.456 104.559C188.663 103.211 188.954 102.199 187.482 101.473Z" fill="black"/>
<path d="M180.486 96.8985C180.059 96.6578 179.564 96.5696 179.081 96.6482C178.842 96.6931 178.625 96.816 178.464 96.9977C178.303 97.1794 178.206 97.4095 178.19 97.6519L177.415 97.6062C177.326 97.5969 177.235 97.6014 177.146 97.6196C177.041 97.6527 176.952 97.7234 176.896 97.8183C176.84 97.9132 176.821 98.0255 176.842 98.1336C176.871 98.2402 176.938 98.3323 177.032 98.3915C177.125 98.4508 177.237 98.473 177.345 98.4538C176.964 98.6057 176.624 98.8454 176.353 99.1534C176.15 99.4589 176.076 99.8317 176.147 100.191C176.217 100.551 176.427 100.868 176.729 101.075C177.047 101.258 177.421 101.319 177.781 101.246C178.14 101.173 178.461 100.972 178.683 100.679C178.637 100.839 178.65 101.011 178.719 101.162C178.788 101.314 178.909 101.437 179.059 101.508C180.518 102.296 181.261 101.225 181.46 99.9848C181.667 98.6367 181.957 97.625 180.486 96.8985Z" fill="#FFE9B3"/>
<path opacity="0.15" d="M180.486 96.8985C180.059 96.6578 179.564 96.5696 179.081 96.6482C178.842 96.6931 178.625 96.816 178.464 96.9977C178.303 97.1794 178.206 97.4095 178.19 97.6519L177.415 97.6062C177.326 97.5969 177.235 97.6014 177.146 97.6196C177.041 97.6527 176.952 97.7234 176.896 97.8183C176.84 97.9132 176.821 98.0255 176.842 98.1336C176.871 98.2402 176.938 98.3323 177.032 98.3915C177.125 98.4508 177.237 98.473 177.345 98.4538C176.964 98.6057 176.624 98.8454 176.353 99.1534C176.15 99.4589 176.076 99.8317 176.147 100.191C176.217 100.551 176.427 100.868 176.729 101.075C177.047 101.258 177.421 101.319 177.781 101.246C178.14 101.173 178.461 100.972 178.683 100.679C178.637 100.839 178.65 101.011 178.719 101.162C178.788 101.314 178.909 101.437 179.059 101.508C180.518 102.296 181.261 101.225 181.46 99.9848C181.667 98.6367 181.957 97.625 180.486 96.8985Z" fill="black"/>
<path d="M175.104 95.284C174.678 95.0433 174.182 94.9551 173.699 95.0337C173.461 95.0786 173.244 95.2015 173.082 95.3832C172.921 95.5649 172.825 95.795 172.809 96.0374L172.034 95.9917C171.944 95.9824 171.853 95.9869 171.765 96.0051C171.66 96.0382 171.57 96.1089 171.514 96.2038C171.458 96.2987 171.439 96.411 171.461 96.5191C171.489 96.6257 171.557 96.7178 171.65 96.777C171.743 96.8363 171.855 96.8585 171.964 96.8393C171.583 96.9912 171.242 97.2309 170.971 97.5389C170.769 97.8443 170.695 98.2172 170.765 98.5768C170.836 98.9363 171.045 99.2537 171.348 99.4601C171.666 99.6434 172.039 99.7043 172.399 99.6315C172.759 99.5586 173.08 99.3571 173.301 99.0646C173.256 99.2249 173.269 99.3962 173.338 99.5479C173.407 99.6996 173.527 99.822 173.678 99.8933C175.136 100.682 175.879 99.6108 176.078 98.3703C176.285 97.0222 176.576 96.0105 175.104 95.284Z" fill="#FFE9B3"/>
<path opacity="0.15" d="M175.104 95.284C174.678 95.0433 174.182 94.9551 173.699 95.0337C173.461 95.0786 173.244 95.2015 173.082 95.3832C172.921 95.5649 172.825 95.795 172.809 96.0374L172.034 95.9917C171.944 95.9824 171.853 95.9869 171.765 96.0051C171.66 96.0382 171.57 96.1089 171.514 96.2038C171.458 96.2987 171.439 96.411 171.461 96.5191C171.489 96.6257 171.557 96.7178 171.65 96.777C171.743 96.8363 171.855 96.8585 171.964 96.8393C171.583 96.9912 171.242 97.2309 170.971 97.5389C170.769 97.8443 170.695 98.2172 170.765 98.5768C170.836 98.9363 171.045 99.2537 171.348 99.4601C171.666 99.6434 172.039 99.7043 172.399 99.6315C172.759 99.5586 173.08 99.3571 173.301 99.0646C173.256 99.2249 173.269 99.3962 173.338 99.5479C173.407 99.6996 173.527 99.822 173.678 99.8933C175.136 100.682 175.879 99.6108 176.078 98.3703C176.285 97.0222 176.576 96.0105 175.104 95.284Z" fill="black"/>
<path d="M181.024 94.2077C180.598 93.967 180.102 93.8788 179.619 93.9574C179.38 94.0023 179.163 94.1252 179.002 94.3069C178.841 94.4886 178.745 94.7187 178.728 94.9611L177.953 94.9154C177.864 94.9061 177.773 94.9106 177.684 94.9288C177.579 94.9619 177.49 95.0326 177.434 95.1275C177.378 95.2224 177.359 95.3347 177.38 95.4428C177.409 95.5494 177.476 95.6415 177.57 95.7007C177.663 95.76 177.775 95.7822 177.884 95.763C177.502 95.9149 177.162 96.1546 176.891 96.4626C176.688 96.7681 176.614 97.1409 176.685 97.5005C176.755 97.86 176.965 98.1774 177.267 98.3838C177.585 98.5671 177.959 98.628 178.319 98.5552C178.678 98.4823 178.999 98.2808 179.221 97.9883C179.176 98.1487 179.189 98.3199 179.257 98.4716C179.326 98.6233 179.447 98.7457 179.598 98.817C181.056 99.6054 181.799 98.5345 181.998 97.294C182.205 95.9459 182.496 94.9342 181.024 94.2077Z" fill="#FFE9B3"/>
<path opacity="0.15" d="M181.024 94.2077C180.598 93.967 180.102 93.8788 179.619 93.9574C179.38 94.0023 179.163 94.1252 179.002 94.3069C178.841 94.4886 178.745 94.7187 178.728 94.9611L177.953 94.9154C177.864 94.9061 177.773 94.9106 177.684 94.9288C177.579 94.9619 177.49 95.0326 177.434 95.1275C177.378 95.2224 177.359 95.3347 177.38 95.4428C177.409 95.5494 177.476 95.6415 177.57 95.7007C177.663 95.76 177.775 95.7822 177.884 95.763C177.502 95.9149 177.162 96.1546 176.891 96.4626C176.688 96.7681 176.614 97.1409 176.685 97.5005C176.755 97.86 176.965 98.1774 177.267 98.3838C177.585 98.5671 177.959 98.628 178.319 98.5552C178.678 98.4823 178.999 98.2808 179.221 97.9883C179.176 98.1487 179.189 98.3199 179.257 98.4716C179.326 98.6233 179.447 98.7457 179.598 98.817C181.056 99.6054 181.799 98.5345 181.998 97.294C182.205 95.9459 182.496 94.9342 181.024 94.2077Z" fill="black"/>
<path d="M183.176 95.8222C182.75 95.5815 182.255 95.4933 181.772 95.5719C181.533 95.6168 181.316 95.7397 181.155 95.9214C180.994 96.1031 180.897 96.3332 180.881 96.5756L180.106 96.5299C180.016 96.5206 179.926 96.5251 179.837 96.5433C179.732 96.5764 179.643 96.6471 179.587 96.742C179.53 96.8369 179.511 96.9492 179.533 97.0573C179.562 97.1639 179.629 97.256 179.722 97.3152C179.816 97.3745 179.928 97.3967 180.036 97.3775C179.655 97.5294 179.315 97.7691 179.043 98.0771C178.841 98.3826 178.767 98.7554 178.838 99.115C178.908 99.4745 179.117 99.7919 179.42 99.9983C179.738 100.182 180.112 100.243 180.472 100.17C180.831 100.097 181.152 99.8953 181.374 99.6028C181.328 99.7632 181.341 99.9344 181.41 100.086C181.479 100.238 181.6 100.36 181.75 100.432C183.209 101.22 183.951 100.149 184.15 98.9085C184.358 97.5604 184.648 96.5487 183.176 95.8222Z" fill="#FFE9B3"/>
<path opacity="0.15" d="M183.176 95.8222C182.75 95.5815 182.255 95.4933 181.772 95.5719C181.533 95.6168 181.316 95.7397 181.155 95.9214C180.994 96.1031 180.897 96.3332 180.881 96.5756L180.106 96.5299C180.016 96.5206 179.926 96.5251 179.837 96.5433C179.732 96.5764 179.643 96.6471 179.587 96.742C179.53 96.8369 179.511 96.9492 179.533 97.0573C179.562 97.1639 179.629 97.256 179.722 97.3152C179.816 97.3745 179.928 97.3967 180.036 97.3775C179.655 97.5294 179.315 97.7691 179.043 98.0771C178.841 98.3826 178.767 98.7554 178.838 99.115C178.908 99.4745 179.117 99.7919 179.42 99.9983C179.738 100.182 180.112 100.243 180.472 100.17C180.831 100.097 181.152 99.8953 181.374 99.6028C181.328 99.7632 181.341 99.9344 181.41 100.086C181.479 100.238 181.6 100.36 181.75 100.432C183.209 101.22 183.951 100.149 184.15 98.9085C184.358 97.5604 184.648 96.5487 183.176 95.8222Z" fill="black"/>
<path d="M169.991 101.473C169.565 101.232 169.07 101.144 168.587 101.223C168.348 101.267 168.131 101.39 167.97 101.572C167.809 101.754 167.712 101.984 167.696 102.226L166.921 102.181C166.831 102.171 166.741 102.176 166.652 102.194C166.547 102.227 166.458 102.298 166.402 102.393C166.346 102.488 166.326 102.6 166.348 102.708C166.377 102.815 166.444 102.907 166.537 102.966C166.631 103.025 166.743 103.047 166.851 103.028C166.47 103.18 166.13 103.42 165.858 103.728C165.656 104.033 165.582 104.406 165.653 104.766C165.723 105.125 165.932 105.443 166.235 105.649C166.553 105.832 166.927 105.893 167.287 105.82C167.646 105.747 167.967 105.546 168.189 105.253C168.143 105.414 168.156 105.585 168.225 105.737C168.294 105.888 168.415 106.011 168.565 106.082C170.024 106.871 170.766 105.8 170.966 104.559C171.173 103.211 171.463 102.199 169.991 101.473Z" fill="#FFE9B3"/>
<path opacity="0.15" d="M169.991 101.473C169.565 101.232 169.07 101.144 168.587 101.223C168.348 101.267 168.131 101.39 167.97 101.572C167.809 101.754 167.712 101.984 167.696 102.226L166.921 102.181C166.831 102.171 166.741 102.176 166.652 102.194C166.547 102.227 166.458 102.298 166.402 102.393C166.346 102.488 166.326 102.6 166.348 102.708C166.377 102.815 166.444 102.907 166.537 102.966C166.631 103.025 166.743 103.047 166.851 103.028C166.47 103.18 166.13 103.42 165.858 103.728C165.656 104.033 165.582 104.406 165.653 104.766C165.723 105.125 165.932 105.443 166.235 105.649C166.553 105.832 166.927 105.893 167.287 105.82C167.646 105.747 167.967 105.546 168.189 105.253C168.143 105.414 168.156 105.585 168.225 105.737C168.294 105.888 168.415 106.011 168.565 106.082C170.024 106.871 170.766 105.8 170.966 104.559C171.173 103.211 171.463 102.199 169.991 101.473Z" fill="black"/>
<path d="M185.598 97.7057C185.172 97.4651 184.677 97.3768 184.194 97.4555C183.955 97.5003 183.738 97.6232 183.576 97.8049C183.415 97.9866 183.319 98.2168 183.303 98.4592L182.528 98.4134C182.438 98.4041 182.347 98.4086 182.259 98.4269C182.154 98.4599 182.064 98.5307 182.008 98.6256C181.952 98.7204 181.933 98.8327 181.955 98.9408C181.983 99.0475 182.051 99.1395 182.144 99.1988C182.237 99.2581 182.349 99.2803 182.458 99.261C182.077 99.413 181.736 99.6527 181.465 99.9606C181.263 100.266 181.189 100.639 181.259 100.999C181.33 101.358 181.539 101.675 181.842 101.882C182.16 102.065 182.534 102.126 182.893 102.053C183.253 101.98 183.574 101.779 183.795 101.486C183.75 101.647 183.763 101.818 183.832 101.97C183.901 102.121 184.021 102.244 184.172 102.315C185.63 103.103 186.373 102.033 186.572 100.792C186.779 99.444 187.07 98.4323 185.598 97.7057Z" fill="#FFE9B3"/>
<path opacity="0.15" d="M185.598 97.7057C185.172 97.4651 184.677 97.3768 184.194 97.4555C183.955 97.5003 183.738 97.6232 183.576 97.8049C183.415 97.9866 183.319 98.2168 183.303 98.4592L182.528 98.4134C182.438 98.4041 182.347 98.4086 182.259 98.4269C182.154 98.4599 182.064 98.5307 182.008 98.6256C181.952 98.7204 181.933 98.8327 181.955 98.9408C181.983 99.0475 182.051 99.1395 182.144 99.1988C182.237 99.2581 182.349 99.2803 182.458 99.261C182.077 99.413 181.736 99.6527 181.465 99.9606C181.263 100.266 181.189 100.639 181.259 100.999C181.33 101.358 181.539 101.675 181.842 101.882C182.16 102.065 182.534 102.126 182.893 102.053C183.253 101.98 183.574 101.779 183.795 101.486C183.75 101.647 183.763 101.818 183.832 101.97C183.901 102.121 184.021 102.244 184.172 102.315C185.63 103.103 186.373 102.033 186.572 100.792C186.779 99.444 187.07 98.4323 185.598 97.7057Z" fill="black"/>
<path d="M190.711 100.397C190.284 100.156 189.789 100.068 189.306 100.146C189.067 100.191 188.85 100.314 188.689 100.496C188.528 100.677 188.431 100.908 188.415 101.15L187.64 101.104C187.551 101.095 187.46 101.099 187.371 101.118C187.266 101.151 187.177 101.221 187.121 101.316C187.065 101.411 187.046 101.524 187.067 101.632C187.096 101.738 187.163 101.83 187.257 101.89C187.35 101.949 187.462 101.971 187.57 101.952C187.189 102.104 186.849 102.343 186.578 102.651C186.375 102.957 186.301 103.33 186.372 103.689C186.442 104.049 186.651 104.366 186.954 104.573C187.272 104.756 187.646 104.817 188.006 104.744C188.365 104.671 188.686 104.47 188.908 104.177C188.862 104.337 188.875 104.509 188.944 104.66C189.013 104.812 189.134 104.935 189.284 105.006C190.743 105.794 191.486 104.723 191.685 103.483C191.892 102.135 192.182 101.123 190.711 100.397Z" fill="#FFE9B3"/>
<path opacity="0.15" d="M190.711 100.397C190.284 100.156 189.789 100.068 189.306 100.146C189.067 100.191 188.85 100.314 188.689 100.496C188.528 100.677 188.431 100.908 188.415 101.15L187.64 101.104C187.551 101.095 187.46 101.099 187.371 101.118C187.266 101.151 187.177 101.221 187.121 101.316C187.065 101.411 187.046 101.524 187.067 101.632C187.096 101.738 187.163 101.83 187.257 101.89C187.35 101.949 187.462 101.971 187.57 101.952C187.189 102.104 186.849 102.343 186.578 102.651C186.375 102.957 186.301 103.33 186.372 103.689C186.442 104.049 186.651 104.366 186.954 104.573C187.272 104.756 187.646 104.817 188.006 104.744C188.365 104.671 188.686 104.47 188.908 104.177C188.862 104.337 188.875 104.509 188.944 104.66C189.013 104.812 189.134 104.935 189.284 105.006C190.743 105.794 191.486 104.723 191.685 103.483C191.892 102.135 192.182 101.123 190.711 100.397Z" fill="black"/>
<path d="M186.405 94.4767C185.979 94.2361 185.484 94.1478 185.001 94.2265C184.762 94.2713 184.545 94.3942 184.384 94.5759C184.223 94.7576 184.126 94.9878 184.11 95.2302L183.335 95.1844C183.245 95.1751 183.155 95.1796 183.066 95.1979C182.961 95.2309 182.872 95.3017 182.816 95.3966C182.759 95.4914 182.74 95.6037 182.762 95.7118C182.791 95.8185 182.858 95.9105 182.951 95.9698C183.045 96.0291 183.157 96.0513 183.265 96.032C182.884 96.184 182.544 96.4237 182.272 96.7316C182.07 97.0371 181.996 97.41 182.067 97.7695C182.137 98.1291 182.346 98.4464 182.649 98.6529C182.967 98.8361 183.341 98.897 183.701 98.8242C184.06 98.7514 184.381 98.5498 184.603 98.2573C184.557 98.4177 184.57 98.5889 184.639 98.7407C184.708 98.8924 184.829 99.0147 184.979 99.0861C186.438 99.8745 187.18 98.8035 187.379 97.5631C187.587 96.215 187.877 95.2032 186.405 94.4767Z" fill="#FFE9B3"/>
<path opacity="0.15" d="M186.405 94.4767C185.979 94.2361 185.484 94.1478 185.001 94.2265C184.762 94.2713 184.545 94.3942 184.384 94.5759C184.223 94.7576 184.126 94.9878 184.11 95.2302L183.335 95.1844C183.245 95.1751 183.155 95.1796 183.066 95.1979C182.961 95.2309 182.872 95.3017 182.816 95.3966C182.759 95.4914 182.74 95.6037 182.762 95.7118C182.791 95.8185 182.858 95.9105 182.951 95.9698C183.045 96.0291 183.157 96.0513 183.265 96.032C182.884 96.184 182.544 96.4237 182.272 96.7316C182.07 97.0371 181.996 97.41 182.067 97.7695C182.137 98.1291 182.346 98.4464 182.649 98.6529C182.967 98.8361 183.341 98.897 183.701 98.8242C184.06 98.7514 184.381 98.5498 184.603 98.2573C184.557 98.4177 184.57 98.5889 184.639 98.7407C184.708 98.8924 184.829 99.0147 184.979 99.0861C186.438 99.8745 187.18 98.8035 187.379 97.5631C187.587 96.215 187.877 95.2032 186.405 94.4767Z" fill="black"/>
<path d="M190.17 100.956C190.416 100.533 190.511 100.039 190.439 99.5543C190.396 99.3149 190.276 99.0963 190.095 98.9331C189.915 98.7699 189.686 98.6713 189.443 98.6529L189.5 97.878C189.513 97.7888 189.513 97.698 189.5 97.6089C189.487 97.5541 189.464 97.5023 189.431 97.4565C189.399 97.4107 189.358 97.3718 189.31 97.3419C189.262 97.3121 189.209 97.2919 189.154 97.2825C189.099 97.2731 189.042 97.2748 188.987 97.2873C188.932 97.2999 188.881 97.3231 188.835 97.3556C188.789 97.3882 188.75 97.4294 188.72 97.477C188.69 97.5246 188.67 97.5776 188.661 97.633C188.651 97.6884 188.653 97.7451 188.666 97.7999C188.518 97.4169 188.282 97.074 187.977 96.7989C187.673 96.5928 187.301 96.5145 186.94 96.581C186.58 96.6475 186.26 96.8534 186.05 97.1541C185.863 97.4704 185.799 97.8441 185.868 98.2048C185.937 98.5656 186.136 98.8885 186.427 99.113C186.267 99.0663 186.095 99.0776 185.942 99.1451C185.79 99.2125 185.666 99.3317 185.593 99.4817C184.785 100.932 185.862 101.685 187.089 101.903C188.421 102.116 189.432 102.42 190.17 100.956Z" fill="#FFE9B3"/>
<path d="M190.17 96.6509C190.416 96.2278 190.511 95.7333 190.439 95.249C190.396 95.0096 190.276 94.791 190.095 94.6278C189.915 94.4646 189.686 94.366 189.443 94.3476L189.5 93.5727C189.513 93.4835 189.513 93.3927 189.5 93.3036C189.474 93.193 189.406 93.0969 189.31 93.0366C189.214 92.9763 189.098 92.9567 188.987 92.982C188.877 93.0074 188.781 93.0756 188.72 93.1717C188.66 93.2679 188.64 93.384 188.666 93.4946C188.518 93.1116 188.282 92.7687 187.977 92.4936C187.673 92.2875 187.301 92.2092 186.94 92.2757C186.58 92.3422 186.26 92.5481 186.05 92.8488C185.863 93.1651 185.799 93.5388 185.868 93.8995C185.937 94.2603 186.136 94.5832 186.427 94.8077C186.267 94.761 186.095 94.7723 185.942 94.8398C185.79 94.9072 185.666 95.0264 185.593 95.1764C184.785 96.6267 185.862 97.3801 187.089 97.5981C188.421 97.8107 189.432 98.1147 190.17 96.6509Z" fill="#FFE9B3"/>
<path d="M185.595 102.302C185.842 101.878 185.937 101.384 185.864 100.9C185.822 100.66 185.701 100.442 185.521 100.278C185.341 100.115 185.111 100.017 184.869 99.9982L184.925 99.2233C184.939 99.1341 184.939 99.0434 184.925 98.9542C184.9 98.8436 184.832 98.7476 184.736 98.6873C184.64 98.627 184.523 98.6073 184.413 98.6327C184.302 98.658 184.206 98.7262 184.146 98.8224C184.086 98.9185 184.066 99.0346 184.091 99.1453C183.943 98.7622 183.707 98.4193 183.402 98.1443C183.099 97.9381 182.727 97.8598 182.366 97.9263C182.006 97.9928 181.686 98.1987 181.476 98.4995C181.289 98.8158 181.224 99.1894 181.294 99.5502C181.363 99.9109 181.562 100.234 181.852 100.458C181.692 100.412 181.521 100.423 181.368 100.49C181.215 100.558 181.092 100.677 181.018 100.827C180.211 102.277 181.287 103.031 182.514 103.249C183.846 103.461 184.858 103.765 185.595 102.302Z" fill="#FFE9B3"/>
<path d="M190.708 107.145C190.954 106.722 191.049 106.227 190.977 105.743C190.935 105.504 190.814 105.285 190.634 105.122C190.453 104.959 190.224 104.86 189.981 104.842L190.038 104.067C190.052 103.978 190.052 103.887 190.038 103.798C190.013 103.687 189.944 103.591 189.848 103.531C189.752 103.47 189.636 103.451 189.525 103.476C189.415 103.501 189.319 103.57 189.258 103.666C189.198 103.762 189.178 103.878 189.204 103.989C189.056 103.606 188.82 103.263 188.515 102.988C188.212 102.782 187.839 102.703 187.479 102.77C187.118 102.836 186.798 103.042 186.588 103.343C186.402 103.659 186.337 104.033 186.406 104.394C186.476 104.754 186.674 105.077 186.965 105.302C186.805 105.255 186.633 105.266 186.481 105.334C186.328 105.401 186.204 105.521 186.131 105.671C185.324 107.121 186.4 107.874 187.627 108.092C188.959 108.305 189.971 108.609 190.708 107.145Z" fill="#FFE9B3"/>
<path d="M181.021 109.029C181.268 108.606 181.363 108.111 181.29 107.627C181.248 107.387 181.127 107.169 180.947 107.005C180.766 106.842 180.537 106.744 180.295 106.725L180.351 105.95C180.365 105.861 180.365 105.77 180.351 105.681C180.326 105.571 180.257 105.475 180.161 105.414C180.065 105.354 179.949 105.334 179.838 105.36C179.728 105.385 179.632 105.453 179.572 105.549C179.511 105.646 179.492 105.762 179.517 105.872C179.369 105.489 179.133 105.146 178.828 104.871C178.525 104.665 178.152 104.587 177.792 104.653C177.431 104.72 177.111 104.926 176.901 105.227C176.715 105.543 176.65 105.916 176.719 106.277C176.789 106.638 176.987 106.961 177.278 107.185C177.118 107.139 176.946 107.15 176.794 107.217C176.641 107.285 176.517 107.404 176.444 107.554C175.637 109.004 176.713 109.758 177.94 109.976C179.272 110.188 180.284 110.492 181.021 109.029Z" fill="#FFE9B3"/>
<path d="M178.868 97.9963C179.115 97.5732 179.21 97.0787 179.137 96.5944C179.095 96.3549 178.974 96.1363 178.794 95.9731C178.614 95.8099 178.384 95.7113 178.142 95.6929L178.198 94.918C178.212 94.8288 178.212 94.7381 178.198 94.6489C178.173 94.5383 178.105 94.4423 178.009 94.382C177.913 94.3217 177.796 94.302 177.686 94.3274C177.575 94.3527 177.479 94.4209 177.419 94.5171C177.359 94.6132 177.339 94.7293 177.364 94.84C177.216 94.4569 176.98 94.114 176.675 93.839C176.372 93.6328 176 93.5545 175.639 93.621C175.278 93.6875 174.959 93.8934 174.749 94.1942C174.562 94.5105 174.497 94.8841 174.567 95.2449C174.636 95.6056 174.835 95.9286 175.125 96.1531C174.965 96.1063 174.794 96.1177 174.641 96.1851C174.488 96.2526 174.365 96.3718 174.291 96.5217C173.484 97.972 174.56 98.7255 175.787 98.9434C177.119 99.156 178.131 99.4601 178.868 97.9963Z" fill="#FFE9B3"/>
<path d="M184.519 96.6509C184.766 96.2278 184.861 95.7333 184.788 95.249C184.746 95.0096 184.625 94.791 184.445 94.6278C184.265 94.4646 184.035 94.366 183.793 94.3476L183.849 93.5727C183.863 93.4835 183.863 93.3927 183.849 93.3036C183.824 93.193 183.756 93.0969 183.659 93.0366C183.563 92.9763 183.447 92.9567 183.336 92.982C183.226 93.0074 183.13 93.0756 183.07 93.1717C183.009 93.2679 182.99 93.384 183.015 93.4946C182.867 93.1116 182.631 92.7687 182.326 92.4936C182.023 92.2875 181.65 92.2092 181.29 92.2757C180.929 92.3422 180.609 92.5481 180.399 92.8488C180.213 93.1651 180.148 93.5388 180.217 93.8995C180.287 94.2603 180.485 94.5832 180.776 94.8077C180.616 94.761 180.444 94.7723 180.292 94.8398C180.139 94.9072 180.015 95.0264 179.942 95.1764C179.135 96.6267 180.211 97.3801 181.438 97.5981C182.77 97.8107 183.782 98.1147 184.519 96.6509Z" fill="#FFE9B3"/>
<path d="M173.218 101.763C173.464 101.34 173.559 100.846 173.487 100.362C173.444 100.122 173.324 99.9035 173.143 99.7403C172.963 99.5771 172.734 99.4786 172.491 99.4602L172.548 98.6852C172.561 98.596 172.561 98.5053 172.548 98.4161C172.522 98.3055 172.454 98.2095 172.358 98.1492C172.262 98.0889 172.146 98.0692 172.035 98.0946C171.924 98.1199 171.828 98.1881 171.768 98.2843C171.708 98.3804 171.688 98.4966 171.714 98.6072C171.566 98.2241 171.33 97.8812 171.025 97.6062C170.721 97.4 170.349 97.3217 169.988 97.3882C169.628 97.4547 169.308 97.6606 169.098 97.9614C168.911 98.2777 168.847 98.6513 168.916 99.0121C168.985 99.3728 169.184 99.6958 169.475 99.9203C169.315 99.8735 169.143 99.8849 168.99 99.9523C168.838 100.02 168.714 100.139 168.641 100.289C167.833 101.739 168.91 102.493 170.137 102.711C171.469 102.923 172.48 103.227 173.218 101.763Z" fill="#FFE9B3"/>
<path d="M168.931 114.106C170.331 113.993 171.711 113.635 173.116 113.654C174.953 113.678 176.721 114.343 178.395 115.102C178.886 115.291 179.337 115.573 179.724 115.931C180 116.249 180.201 116.625 180.312 117.031C180.423 117.437 180.441 117.863 180.365 118.277C180.207 119.105 179.879 119.891 179.401 120.586C178.912 121.363 178.306 122.13 177.453 122.469C176.976 122.634 176.475 122.72 175.97 122.725C173.864 122.84 171.716 122.725 169.717 122.049C168.692 121.7 167.72 121.21 166.717 120.795C163.517 119.472 160.057 118.95 156.659 118.282C156.486 118.262 156.321 118.198 156.18 118.097C155.472 117.486 157.008 115.285 157.369 114.669C157.977 113.622 158.529 113.509 159.761 113.479C162.839 113.401 165.845 114.297 168.931 114.106Z" fill="#A0616A"/>
<path d="M192.871 121.552C191.897 121.073 191.023 120.411 190.057 119.913C188.84 119.287 187.503 118.932 186.136 118.872C185.251 118.831 184.288 118.95 183.645 119.56C182.727 120.432 182.837 121.915 183.139 123.145C183.596 124.988 184.516 126.939 186.284 127.636C186.979 127.868 187.705 127.992 188.437 128.004C191.712 128.23 195.121 128.435 198.156 127.197C198.378 127.128 198.569 126.982 198.694 126.785C198.826 126.516 198.694 126.193 198.56 125.922C198.075 124.947 197.308 122.905 196.372 122.297C195.5 121.713 193.958 122.084 192.871 121.552Z" fill="#A0616A"/>
<path opacity="0.1" d="M200.567 106.898C202.361 109.743 203.835 112.778 204.964 115.947C205.279 116.726 205.461 117.553 205.502 118.393C205.502 119.326 205.176 120.23 204.835 121.113C203.746 123.937 202.482 126.691 201.051 129.358C200.621 130.165 200.128 131.007 199.275 131.451C198.379 131.919 197.276 131.847 196.251 131.72C193.682 131.439 191.134 130.988 188.625 130.369C190.205 130.421 191.631 129.237 192.36 127.948C193.089 126.659 193.251 125.184 193.372 123.745C193.483 122.969 193.45 122.18 193.275 121.417C193.173 121.023 192.977 120.66 192.704 120.358C192.432 120.055 192.09 119.823 191.709 119.682C191.636 118.979 192.306 118.39 192.998 118.067C193.689 117.744 194.475 117.564 195.037 117.079C195.866 116.369 195.985 115.182 195.713 114.176C195.441 113.17 194.849 112.26 194.429 111.294C193.84 109.949 196.881 108.534 197.002 107.08C197.029 106.752 196.797 107.35 197.002 107.08C197.206 106.811 198.476 107.745 198.764 107.619C200.656 106.801 199.52 105.235 200.567 106.898Z" fill="black"/>
<path d="M201.154 106.898C202.947 109.744 204.423 112.778 205.553 115.947C205.87 116.726 206.052 117.553 206.091 118.393C206.091 119.326 205.766 120.23 205.427 121.113C204.337 123.937 203.073 126.69 201.643 129.358C201.213 130.165 200.72 131.007 199.867 131.451C198.971 131.919 197.866 131.847 196.843 131.72C194.273 131.44 191.725 130.988 189.215 130.369C190.791 130.421 192.22 129.237 192.947 127.948C193.673 126.659 193.84 125.184 193.961 123.745C194.071 122.969 194.038 122.181 193.864 121.417C193.761 121.024 193.565 120.661 193.293 120.358C193.02 120.056 192.679 119.824 192.298 119.682C192.223 118.979 192.896 118.39 193.587 118.067C194.279 117.744 195.064 117.564 195.627 117.08C196.453 116.369 196.571 115.183 196.299 114.176C196.028 113.17 195.436 112.26 195.016 111.294C194.429 109.947 194.183 108.476 194.3 107.011C194.306 106.675 194.405 106.348 194.585 106.066C194.786 105.826 195.044 105.641 195.336 105.528C197.236 104.721 200.107 105.235 201.154 106.898Z" fill="#F98A8D"/>
<path opacity="0.1" d="M143.635 104.228C141.889 105.843 140.086 107.549 139.236 109.774C138.773 110.988 138.619 112.295 138.469 113.587C138.216 115.788 137.987 118.145 139.007 120.109C140.137 122.262 142.505 123.416 144.728 124.393C145.496 124.754 146.293 125.053 147.109 125.286C148.179 125.526 149.269 125.659 150.365 125.685L161.583 126.309C160.119 124.834 159.183 122.526 159.382 120.456C159.562 118.608 160.458 116.913 161.359 115.296C161.828 114.461 162.358 113.584 163.221 113.172C159.567 112.365 155.809 112.129 152.082 112.473C151.831 112.494 151.543 112.502 151.379 112.303C151.297 112.178 151.26 112.03 151.272 111.881C151.272 110.21 152.52 108.821 153.037 107.234C153.863 104.688 151.051 106.085 148.522 105.21C145.992 104.336 144.152 101.602 143.635 104.228Z" fill="black"/>
<path d="M142.828 104.228C141.081 105.843 139.279 107.549 138.428 109.774C137.966 110.987 137.812 112.295 137.661 113.587C137.409 115.788 137.18 118.145 138.2 120.109C139.33 122.262 141.698 123.416 143.92 124.393C144.689 124.754 145.485 125.053 146.302 125.286C147.371 125.525 148.462 125.659 149.558 125.685L160.775 126.309C159.312 124.834 158.375 122.526 158.574 120.456C158.755 118.608 159.651 116.913 160.552 115.295C161.02 114.461 161.55 113.584 162.414 113.172C158.759 112.365 155.001 112.129 151.274 112.473C151.024 112.494 150.736 112.502 150.572 112.303C150.49 112.178 150.452 112.03 150.464 111.881C150.464 110.21 151.713 108.821 152.229 107.234C153.056 104.688 151.619 101.583 149.087 100.703C146.555 99.8233 143.344 101.602 142.828 104.228Z" fill="#F98A8D"/>
<path d="M171.001 75.3425C178.505 75.3425 184.589 72.8126 184.589 69.6918C184.589 66.571 178.505 64.0411 171.001 64.0411C163.496 64.0411 157.412 66.571 157.412 69.6918C157.412 72.8126 163.496 75.3425 171.001 75.3425Z" fill="#2F2E41"/>
<path opacity="0.1" d="M170.731 72.9208C164.228 72.9208 158.792 71.0184 157.458 68.481C157.255 68.8527 157.147 69.2685 157.143 69.6918C157.143 72.8131 163.227 75.3425 170.731 75.3425C178.236 75.3425 184.32 72.8131 184.32 69.6918C184.316 69.2685 184.208 68.8527 184.005 68.481C182.67 71.0184 177.235 72.9208 170.731 72.9208Z" fill="black"/>
<path d="M189.096 73.4885C188.67 73.2478 188.175 73.1595 187.691 73.2382C187.453 73.283 187.236 73.406 187.074 73.5877C186.913 73.7693 186.817 73.9995 186.801 74.2419L186.026 74.1961C185.936 74.1868 185.845 74.1914 185.757 74.2096C185.652 74.2426 185.562 74.3134 185.506 74.4083C185.45 74.5032 185.431 74.6154 185.453 74.7235C185.481 74.8302 185.549 74.9222 185.642 74.9815C185.735 75.0408 185.847 75.063 185.956 75.0437C185.575 75.1957 185.234 75.4354 184.963 75.7433C184.761 76.0488 184.687 76.4217 184.757 76.7812C184.828 77.1408 185.037 77.4581 185.34 77.6646C185.658 77.8478 186.032 77.9088 186.391 77.8359C186.751 77.7631 187.072 77.5615 187.293 77.269C187.248 77.4294 187.261 77.6007 187.33 77.7524C187.399 77.9041 187.519 78.0265 187.67 78.0978C189.128 78.8862 189.871 77.8153 190.07 76.5748C190.277 75.2267 190.568 74.215 189.096 73.4885Z" fill="#FFE9B3"/>
<path opacity="0.15" d="M189.096 73.4885C188.67 73.2478 188.175 73.1595 187.691 73.2382C187.453 73.283 187.236 73.406 187.074 73.5877C186.913 73.7693 186.817 73.9995 186.801 74.2419L186.026 74.1961C185.936 74.1868 185.845 74.1914 185.757 74.2096C185.652 74.2426 185.562 74.3134 185.506 74.4083C185.45 74.5032 185.431 74.6154 185.453 74.7235C185.481 74.8302 185.549 74.9222 185.642 74.9815C185.735 75.0408 185.847 75.063 185.956 75.0437C185.575 75.1957 185.234 75.4354 184.963 75.7433C184.761 76.0488 184.687 76.4217 184.757 76.7812C184.828 77.1408 185.037 77.4581 185.34 77.6646C185.658 77.8478 186.032 77.9088 186.391 77.8359C186.751 77.7631 187.072 77.5615 187.293 77.269C187.248 77.4294 187.261 77.6007 187.33 77.7524C187.399 77.9041 187.519 78.0265 187.67 78.0978C189.128 78.8862 189.871 77.8153 190.07 76.5748C190.277 75.2267 190.568 74.215 189.096 73.4885Z" fill="black"/>
<path d="M202.012 93.9386C201.586 93.698 201.09 93.6097 200.607 93.6884C200.369 93.7332 200.152 93.8562 199.99 94.0379C199.829 94.2195 199.733 94.4497 199.717 94.6921L198.942 94.6463C198.852 94.637 198.761 94.6416 198.673 94.6598C198.568 94.6928 198.478 94.7636 198.422 94.8585C198.366 94.9534 198.347 95.0656 198.369 95.1737C198.397 95.2804 198.465 95.3724 198.558 95.4317C198.651 95.491 198.763 95.5132 198.872 95.4939C198.49 95.6459 198.15 95.8856 197.879 96.1935C197.677 96.499 197.603 96.8719 197.673 97.2314C197.744 97.591 197.953 97.9083 198.256 98.1148C198.574 98.298 198.947 98.359 199.307 98.2861C199.667 98.2133 199.988 98.0117 200.209 97.7192C200.164 97.8796 200.177 98.0509 200.246 98.2026C200.315 98.3543 200.435 98.4767 200.586 98.548C202.044 99.3364 202.787 98.2655 202.986 97.025C203.193 95.6769 203.484 94.6652 202.012 93.9386Z" fill="#FFE9B3"/>
<path opacity="0.15" d="M202.012 93.9386C201.586 93.698 201.09 93.6097 200.607 93.6884C200.369 93.7332 200.152 93.8562 199.99 94.0379C199.829 94.2195 199.733 94.4497 199.717 94.6921L198.942 94.6463C198.852 94.637 198.761 94.6416 198.673 94.6598C198.568 94.6928 198.478 94.7636 198.422 94.8585C198.366 94.9534 198.347 95.0656 198.369 95.1737C198.397 95.2804 198.465 95.3724 198.558 95.4317C198.651 95.491 198.763 95.5132 198.872 95.4939C198.49 95.6459 198.15 95.8856 197.879 96.1935C197.677 96.499 197.603 96.8719 197.673 97.2314C197.744 97.591 197.953 97.9083 198.256 98.1148C198.574 98.298 198.947 98.359 199.307 98.2861C199.667 98.2133 199.988 98.0117 200.209 97.7192C200.164 97.8796 200.177 98.0509 200.246 98.2026C200.315 98.3543 200.435 98.4767 200.586 98.548C202.044 99.3364 202.787 98.2655 202.986 97.025C203.193 95.6769 203.484 94.6652 202.012 93.9386Z" fill="black"/>
<path d="M217.08 115.734C216.654 115.493 216.159 115.405 215.676 115.484C215.437 115.529 215.22 115.652 215.059 115.833C214.898 116.015 214.801 116.245 214.785 116.487L214.01 116.442C213.92 116.432 213.83 116.437 213.741 116.455C213.636 116.488 213.547 116.559 213.491 116.654C213.434 116.749 213.415 116.861 213.437 116.969C213.466 117.076 213.533 117.168 213.626 117.227C213.72 117.286 213.832 117.309 213.94 117.289C213.559 117.441 213.219 117.681 212.947 117.989C212.745 118.294 212.671 118.667 212.742 119.027C212.812 119.386 213.021 119.704 213.324 119.91C213.642 120.093 214.016 120.154 214.376 120.082C214.735 120.009 215.056 119.807 215.278 119.515C215.232 119.675 215.245 119.846 215.314 119.998C215.383 120.15 215.504 120.272 215.654 120.343C217.113 121.132 217.855 120.061 218.055 118.82C218.262 117.472 218.552 116.461 217.08 115.734Z" fill="#FFE9B3"/>
<path opacity="0.15" d="M217.08 115.734C216.654 115.493 216.159 115.405 215.676 115.484C215.437 115.529 215.22 115.652 215.059 115.833C214.898 116.015 214.801 116.245 214.785 116.487L214.01 116.442C213.92 116.432 213.83 116.437 213.741 116.455C213.636 116.488 213.547 116.559 213.491 116.654C213.434 116.749 213.415 116.861 213.437 116.969C213.466 117.076 213.533 117.168 213.626 117.227C213.72 117.286 213.832 117.309 213.94 117.289C213.559 117.441 213.219 117.681 212.947 117.989C212.745 118.294 212.671 118.667 212.742 119.027C212.812 119.386 213.021 119.704 213.324 119.91C213.642 120.093 214.016 120.154 214.376 120.082C214.735 120.009 215.056 119.807 215.278 119.515C215.232 119.675 215.245 119.846 215.314 119.998C215.383 120.15 215.504 120.272 215.654 120.343C217.113 121.132 217.855 120.061 218.055 118.82C218.262 117.472 218.552 116.461 217.08 115.734Z" fill="black"/>
<path d="M193.937 67.5903C194.183 67.1672 194.278 66.6727 194.206 66.1884C194.164 65.9489 194.043 65.7303 193.863 65.5671C193.682 65.4039 193.453 65.3053 193.21 65.2869L193.267 64.512C193.28 64.4228 193.28 64.3321 193.267 64.2429C193.241 64.1323 193.173 64.0363 193.077 63.976C192.981 63.9157 192.865 63.896 192.754 63.9214C192.644 63.9467 192.548 64.0149 192.487 64.1111C192.427 64.2072 192.407 64.3233 192.433 64.4339C192.285 64.0509 192.049 63.708 191.744 63.433C191.441 63.2268 191.068 63.1485 190.708 63.215C190.347 63.2815 190.027 63.4874 189.817 63.7882C189.63 64.1045 189.566 64.4781 189.635 64.8389C189.704 65.1996 189.903 65.5226 190.194 65.7471C190.034 65.7003 189.862 65.7117 189.71 65.7791C189.557 65.8466 189.433 65.9658 189.36 66.1157C188.553 67.566 189.629 68.3195 190.856 68.5374C192.188 68.75 193.2 69.0541 193.937 67.5903Z" fill="#FFE9B3"/>
<path d="M192.322 58.1724C192.569 57.7493 192.664 57.2548 192.592 56.7705C192.549 56.531 192.428 56.3125 192.248 56.1493C192.068 55.9861 191.838 55.8875 191.596 55.8691L191.652 55.0941C191.666 55.005 191.666 54.9142 191.652 54.8251C191.627 54.7144 191.559 54.6184 191.463 54.5581C191.367 54.4978 191.25 54.4782 191.14 54.5035C191.029 54.5288 190.933 54.5971 190.873 54.6932C190.813 54.7893 190.793 54.9055 190.818 55.0161C190.67 54.633 190.434 54.2901 190.129 54.0151C189.826 53.809 189.454 53.7307 189.093 53.7972C188.733 53.8636 188.413 54.0696 188.203 54.3703C188.016 54.6866 187.951 55.0603 188.021 55.421C188.09 55.7818 188.289 56.1047 188.58 56.3292C188.419 56.2825 188.248 56.2938 188.095 56.3613C187.943 56.4287 187.819 56.5479 187.745 56.6979C186.938 58.1482 188.014 58.9016 189.241 59.1196C190.573 59.3321 191.585 59.6362 192.322 58.1724Z" fill="#FFE9B3"/>
<path d="M151.963 135.646C151.537 135.405 151.041 135.317 150.558 135.396C150.32 135.441 150.103 135.564 149.941 135.745C149.78 135.927 149.684 136.157 149.668 136.399L148.893 136.354C148.804 136.34 148.713 136.34 148.624 136.354C148.519 136.387 148.429 136.458 148.373 136.552C148.317 136.647 148.298 136.76 148.32 136.868C148.348 136.974 148.416 137.066 148.509 137.126C148.602 137.185 148.714 137.207 148.823 137.188C148.442 137.34 148.101 137.58 147.83 137.887C147.628 138.193 147.554 138.566 147.624 138.925C147.695 139.285 147.904 139.602 148.207 139.809C148.525 139.992 148.898 140.053 149.258 139.98C149.618 139.907 149.939 139.706 150.16 139.413C150.115 139.574 150.128 139.745 150.197 139.897C150.266 140.048 150.386 140.171 150.537 140.242C151.995 141.03 152.738 139.973 152.937 138.719C153.144 137.384 153.435 136.373 151.963 135.646Z" fill="#FFE9B3"/>
<path opacity="0.15" d="M151.963 135.646C151.537 135.405 151.041 135.317 150.558 135.396C150.32 135.441 150.103 135.564 149.941 135.745C149.78 135.927 149.684 136.157 149.668 136.399L148.893 136.354C148.804 136.34 148.713 136.34 148.624 136.354C148.519 136.387 148.429 136.458 148.373 136.552C148.317 136.647 148.298 136.76 148.32 136.868C148.348 136.974 148.416 137.066 148.509 137.126C148.602 137.185 148.714 137.207 148.823 137.188C148.442 137.34 148.101 137.58 147.83 137.887C147.628 138.193 147.554 138.566 147.624 138.925C147.695 139.285 147.904 139.602 148.207 139.809C148.525 139.992 148.898 140.053 149.258 139.98C149.618 139.907 149.939 139.706 150.16 139.413C150.115 139.574 150.128 139.745 150.197 139.897C150.266 140.048 150.386 140.171 150.537 140.242C151.995 141.03 152.738 139.973 152.937 138.719C153.144 137.384 153.435 136.373 151.963 135.646Z" fill="black"/>
<path d="M142.273 135.129C142.52 134.706 142.615 134.212 142.543 133.728C142.5 133.488 142.379 133.27 142.199 133.106C142.019 132.943 141.789 132.845 141.547 132.826L141.603 132.051C141.617 131.962 141.617 131.871 141.603 131.782C141.578 131.671 141.51 131.575 141.414 131.515C141.318 131.455 141.202 131.435 141.091 131.461C140.98 131.486 140.884 131.554 140.824 131.65C140.764 131.746 140.744 131.863 140.769 131.973C140.621 131.59 140.385 131.247 140.081 130.972C139.777 130.766 139.405 130.688 139.044 130.754C138.684 130.821 138.364 131.027 138.154 131.327C137.967 131.644 137.902 132.017 137.972 132.378C138.041 132.739 138.24 133.062 138.531 133.286C138.37 133.239 138.199 133.251 138.046 133.318C137.894 133.386 137.77 133.505 137.696 133.655C136.889 135.105 137.966 135.859 139.193 136.077C140.524 136.289 141.536 136.593 142.273 135.129Z" fill="#FFE9B3"/>
<path d="M155.189 120.33C155.436 119.907 155.531 119.412 155.458 118.928C155.416 118.689 155.295 118.47 155.115 118.307C154.935 118.144 154.705 118.045 154.463 118.027L154.519 117.252C154.533 117.163 154.533 117.072 154.519 116.983C154.494 116.872 154.426 116.776 154.33 116.716C154.233 116.655 154.117 116.636 154.007 116.661C153.896 116.686 153.8 116.755 153.74 116.851C153.679 116.947 153.66 117.063 153.685 117.174C153.537 116.791 153.301 116.448 152.996 116.173C152.693 115.967 152.321 115.888 151.96 115.955C151.599 116.021 151.279 116.227 151.07 116.528C150.883 116.844 150.818 117.218 150.887 117.579C150.957 117.939 151.156 118.262 151.446 118.487C151.286 118.44 151.115 118.451 150.962 118.519C150.809 118.586 150.685 118.706 150.612 118.855C149.805 120.306 150.881 121.059 152.108 121.277C153.44 121.49 154.452 121.794 155.189 120.33Z" fill="#FFE9B3"/>
<path d="M134.516 125.216C131.895 124.546 129.167 123.871 126.519 124.409C125.34 124.649 124.226 125.122 123.08 125.486C120.257 126.36 117.274 126.588 114.351 126.151C111.429 125.715 108.642 124.626 106.198 122.964C103.453 121.067 100.601 118.301 97.3505 119.052C96.476 119.256 95.666 119.714 94.7727 119.813C93.0963 120.004 91.5437 118.917 89.8808 118.662C87.0178 118.223 84.4158 120.23 82.2147 122.114L70.6093 132.046C69.7294 132.799 68.7607 133.795 68.9948 134.925C69.3527 136.585 71.8955 136.808 72.5494 138.383C73.0229 139.51 72.2399 140.823 71.204 141.466C70.168 142.109 68.9141 142.273 67.7517 142.664C65.9953 143.252 64.4211 144.285 63.182 145.662C61.9429 147.038 61.081 148.712 60.6802 150.521C60.4757 151.484 60.4112 152.485 60.0318 153.395C59.6227 154.385 58.8828 155.197 58.3365 156.118C55.9471 160.127 57.5159 165.447 55.7023 169.747C54.7416 172.028 52.8177 174.235 53.4258 176.632C53.9801 178.807 56.3669 179.918 58.5384 180.494C58.794 181.974 58.2693 183.018 57.1929 184.08C66.2206 187.791 75.9102 191.58 85.4867 189.683C88.7722 189.034 91.9716 187.718 95.3189 187.772C97.6949 187.81 100.044 188.542 102.415 188.375C107.417 188.023 112.01 183.747 116.856 185.03C115.395 185.13 114.854 187.266 115.715 188.453C116.576 189.64 118.161 190.019 119.62 190.159C121.078 190.299 122.622 190.31 123.887 191.052C122.929 193.046 119.498 193.743 119.829 195.936C119.951 196.727 120.591 197.327 121.226 197.82C127.751 202.817 136.738 202.338 144.905 203.201C150.927 203.831 156.831 205.303 162.834 206.089C172.424 207.34 182.146 206.829 191.8 206.312C193.552 206.218 195.516 206.024 196.644 204.679C198.14 202.886 197.308 200.231 197.12 197.906C196.388 188.808 206.339 182.547 209.126 173.855C210.203 170.462 210.157 166.816 209.963 163.256C209.53 155.227 208.273 146.756 203.156 140.557C198.942 135.444 192.643 132.565 186.37 130.455C182.377 129.11 178.193 128.004 173.993 128.4C166.943 129.064 159.82 133.878 153.311 131.091C151.589 130.353 150.123 129.134 148.487 128.225C144.187 125.795 139.308 126.441 134.516 125.216Z" fill="#C5C5C7"/>
<g opacity="0.1">
<path d="M170.922 199.082C164.919 198.296 159.026 196.832 152.994 196.195C144.819 195.339 135.832 195.818 129.315 190.813C128.68 190.326 128.039 189.737 127.918 188.929C127.587 186.742 131.018 186.039 131.976 184.046C130.711 183.303 129.169 183.295 127.708 183.152C126.247 183.01 124.665 182.633 123.804 181.446C122.943 180.26 123.484 178.123 124.945 178.024C120.101 176.74 115.505 181.016 110.503 181.368C108.133 181.535 105.784 180.803 103.408 180.765C100.06 180.712 96.8608 182.027 93.5754 182.676C83.9988 184.56 74.3119 180.792 65.2816 177.074C66.3444 175.997 66.8745 174.967 66.627 173.487C64.4609 172.911 62.0741 171.8 61.5145 169.626C60.9063 167.228 62.8303 165.022 63.7909 162.74C65.6045 158.435 64.0357 153.12 66.4252 149.111C66.9633 148.191 67.7114 147.378 68.1204 146.388C68.4944 145.478 68.5644 144.477 68.7689 143.514C68.857 143.092 68.9739 142.677 69.1187 142.271C68.6666 142.395 68.2092 142.508 67.7733 142.653C66.0169 143.241 64.4427 144.274 63.2036 145.651C61.9645 147.028 61.1026 148.702 60.7018 150.51C60.4973 151.473 60.4328 152.474 60.0534 153.384C59.6443 154.374 58.9044 155.187 58.3581 156.107C55.9687 160.116 57.5375 165.436 55.7238 169.736C54.7632 172.018 52.8393 174.224 53.4474 176.622C54.0017 178.796 56.3885 179.907 58.56 180.483C58.8156 181.963 58.2909 183.007 57.2146 184.07C66.2449 187.78 75.9318 191.569 85.5083 189.672C88.7938 189.024 91.9932 187.708 95.3405 187.762C97.7165 187.799 100.066 188.531 102.436 188.364C107.438 188.012 112.032 183.736 116.878 185.02C115.417 185.119 114.876 187.256 115.737 188.442C116.598 189.629 118.183 190.008 119.641 190.148C121.1 190.288 122.644 190.299 123.909 191.042C122.951 193.036 119.52 193.732 119.851 195.925C119.972 196.717 120.613 197.317 121.248 197.809C127.773 202.806 136.76 202.327 144.927 203.191C150.949 203.82 156.852 205.292 162.855 206.078C172.445 207.329 182.167 206.818 191.822 206.301C193.574 206.207 195.538 206.013 196.665 204.668C197.836 203.263 197.58 201.331 197.325 199.44C188.51 199.897 179.66 200.223 170.922 199.082Z" fill="black"/>
<path d="M72.162 137.78C73.2267 136.832 74.4752 136.114 75.8296 135.67C76.992 135.294 78.2513 135.113 79.2819 134.473C80.3125 133.832 81.1036 132.517 80.6273 131.389C79.9734 129.826 77.4306 129.592 77.0727 127.932C76.9086 127.167 77.2988 126.465 77.8423 125.857L70.6067 132.046C69.7268 132.799 68.7582 133.795 68.9923 134.925C69.3071 136.346 71.2068 136.725 72.162 137.78Z" fill="black"/>
</g>
<path d="M96.5299 132.439C96.7764 132.016 96.8713 131.521 96.799 131.037C96.7566 130.797 96.6358 130.579 96.4556 130.416C96.2753 130.252 96.0458 130.154 95.8034 130.135L95.8599 129.36C95.8691 129.271 95.8646 129.18 95.8464 129.091C95.8211 128.981 95.7528 128.885 95.6567 128.824C95.5606 128.764 95.4444 128.744 95.3338 128.77C95.2232 128.795 95.1272 128.863 95.0669 128.959C95.0066 129.056 94.9869 129.172 95.0123 129.282C94.8643 128.899 94.6284 128.556 94.3234 128.281C94.0201 128.075 93.6478 127.997 93.2872 128.063C92.9265 128.13 92.6066 128.336 92.3968 128.637C92.21 128.953 92.1452 129.327 92.2146 129.687C92.284 130.048 92.4827 130.371 92.7735 130.595C92.6133 130.549 92.4418 130.56 92.2891 130.627C92.1365 130.695 92.0126 130.814 91.9394 130.964C91.1321 132.414 92.2084 133.168 93.4354 133.386C94.7808 133.598 95.7926 133.902 96.5299 132.439Z" fill="#FFE9B3"/>
<path d="M135.815 184.64C136.062 184.217 136.157 183.723 136.085 183.238C136.042 182.999 135.921 182.78 135.741 182.617C135.561 182.454 135.331 182.355 135.089 182.337L135.145 181.562C135.159 181.473 135.159 181.382 135.145 181.293C135.12 181.182 135.052 181.086 134.956 181.026C134.86 180.966 134.743 180.946 134.633 180.971C134.522 180.997 134.426 181.065 134.366 181.161C134.306 181.257 134.286 181.373 134.311 181.484C134.163 181.101 133.927 180.758 133.622 180.483C133.319 180.277 132.947 180.198 132.586 180.265C132.226 180.331 131.906 180.537 131.696 180.838C131.509 181.154 131.444 181.528 131.514 181.889C131.583 182.25 131.782 182.573 132.073 182.797C131.912 182.75 131.741 182.762 131.588 182.829C131.436 182.896 131.312 183.016 131.238 183.166C130.431 184.616 131.508 185.369 132.735 185.587C134.066 185.8 135.078 186.104 135.815 184.64Z" fill="#FFE9B3"/>
<path d="M162.724 133.246C162.97 132.823 163.065 132.328 162.993 131.844C162.95 131.604 162.83 131.386 162.649 131.223C162.469 131.059 162.24 130.961 161.997 130.942L162.054 130.168C162.067 130.078 162.067 129.988 162.054 129.898C162.028 129.788 161.96 129.692 161.864 129.631C161.768 129.571 161.652 129.552 161.541 129.577C161.43 129.602 161.334 129.67 161.274 129.767C161.214 129.863 161.194 129.979 161.219 130.089C161.071 129.706 160.836 129.364 160.531 129.088C160.227 128.882 159.855 128.804 159.494 128.871C159.134 128.937 158.814 129.143 158.604 129.444C158.417 129.76 158.352 130.134 158.422 130.494C158.491 130.855 158.69 131.178 158.981 131.403C158.82 131.356 158.649 131.367 158.496 131.435C158.344 131.502 158.22 131.621 158.147 131.771C157.339 133.222 158.416 133.975 159.643 134.193C160.975 134.406 161.986 134.71 162.724 133.246Z" fill="#FFE9B3"/>
<path d="M167.785 132.654C168.232 132.456 168.598 132.111 168.824 131.677C168.931 131.459 168.963 131.212 168.914 130.974C168.865 130.737 168.739 130.522 168.555 130.364L169.052 129.767C169.116 129.698 169.169 129.62 169.208 129.535C169.253 129.431 169.254 129.313 169.212 129.207C169.169 129.102 169.087 129.018 168.982 128.973C168.878 128.928 168.76 128.927 168.654 128.969C168.549 129.012 168.465 129.094 168.42 129.199C168.525 128.802 168.535 128.387 168.45 127.985C168.325 127.64 168.069 127.358 167.737 127.2C167.406 127.043 167.026 127.022 166.679 127.143C166.343 127.29 166.071 127.554 165.916 127.886C165.761 128.219 165.733 128.597 165.837 128.949C165.735 128.817 165.589 128.726 165.427 128.69C165.264 128.655 165.094 128.678 164.946 128.755C163.445 129.457 163.87 130.69 164.742 131.588C165.683 132.571 166.324 133.407 167.785 132.654Z" fill="#FFE9B3"/>
<path d="M109.448 134.032C109.022 133.791 108.527 133.703 108.044 133.781C107.805 133.826 107.588 133.949 107.427 134.131C107.265 134.312 107.169 134.543 107.153 134.785L106.378 134.739C106.289 134.725 106.198 134.725 106.109 134.739C106.004 134.772 105.915 134.843 105.859 134.938C105.802 135.033 105.783 135.145 105.805 135.253C105.834 135.36 105.901 135.452 105.994 135.511C106.087 135.57 106.199 135.593 106.308 135.573C105.927 135.725 105.587 135.965 105.315 136.273C105.113 136.578 105.039 136.951 105.11 137.311C105.18 137.67 105.389 137.988 105.692 138.194C106.01 138.377 106.384 138.438 106.744 138.366C107.103 138.293 107.424 138.091 107.646 137.799C107.6 137.959 107.613 138.13 107.682 138.282C107.751 138.434 107.872 138.556 108.022 138.627C109.481 139.416 110.223 138.358 110.422 137.104C110.63 135.77 110.92 134.758 109.448 134.032Z" fill="#FFE9B3"/>
<path opacity="0.15" d="M109.448 134.032C109.022 133.791 108.527 133.703 108.044 133.781C107.805 133.826 107.588 133.949 107.427 134.131C107.265 134.312 107.169 134.543 107.153 134.785L106.378 134.739C106.289 134.725 106.198 134.725 106.109 134.739C106.004 134.772 105.915 134.843 105.859 134.938C105.802 135.033 105.783 135.145 105.805 135.253C105.834 135.36 105.901 135.452 105.994 135.511C106.087 135.57 106.199 135.593 106.308 135.573C105.927 135.725 105.587 135.965 105.315 136.273C105.113 136.578 105.039 136.951 105.11 137.311C105.18 137.67 105.389 137.988 105.692 138.194C106.01 138.377 106.384 138.438 106.744 138.366C107.103 138.293 107.424 138.091 107.646 137.799C107.6 137.959 107.613 138.13 107.682 138.282C107.751 138.434 107.872 138.556 108.022 138.627C109.481 139.416 110.223 138.358 110.422 137.104C110.63 135.77 110.92 134.758 109.448 134.032Z" fill="black"/>
<path d="M133.407 154.048C133.49 153.567 133.408 153.071 133.176 152.641C133.054 152.43 132.865 152.267 132.639 152.175C132.414 152.084 132.164 152.071 131.93 152.138L131.715 151.39C131.694 151.295 131.657 151.204 131.607 151.121C131.545 151.026 131.448 150.959 131.336 150.935C131.225 150.912 131.109 150.934 131.014 150.996C130.919 151.058 130.852 151.155 130.828 151.266C130.805 151.378 130.827 151.494 130.889 151.589C130.619 151.279 130.28 151.037 129.899 150.884C129.543 150.796 129.166 150.851 128.85 151.037C128.535 151.224 128.305 151.528 128.211 151.882C128.145 152.243 128.213 152.616 128.402 152.931C128.592 153.246 128.889 153.48 129.239 153.591C129.073 153.602 128.916 153.672 128.796 153.787C128.676 153.903 128.6 154.057 128.583 154.223C128.314 155.862 129.584 156.204 130.819 155.978C132.164 155.733 133.214 155.663 133.407 154.048Z" fill="#FFE9B3"/>
<path opacity="0.15" d="M133.407 154.048C133.49 153.567 133.408 153.071 133.176 152.641C133.054 152.43 132.865 152.267 132.639 152.175C132.414 152.084 132.164 152.071 131.93 152.138L131.715 151.39C131.694 151.295 131.657 151.204 131.607 151.121C131.545 151.026 131.448 150.959 131.336 150.935C131.225 150.912 131.109 150.934 131.014 150.996C130.919 151.058 130.852 151.155 130.828 151.266C130.805 151.378 130.827 151.494 130.889 151.589C130.619 151.279 130.28 151.037 129.899 150.884C129.543 150.796 129.166 150.851 128.85 151.037C128.535 151.224 128.305 151.528 128.211 151.882C128.145 152.243 128.213 152.616 128.402 152.931C128.592 153.246 128.889 153.48 129.239 153.591C129.073 153.602 128.916 153.672 128.796 153.787C128.676 153.903 128.6 154.057 128.583 154.223C128.314 155.862 129.584 156.204 130.819 155.978C132.164 155.733 133.214 155.663 133.407 154.048Z" fill="black"/>
<path d="M165.697 129.562C165.78 129.08 165.698 128.585 165.465 128.155C165.344 127.944 165.155 127.78 164.929 127.689C164.703 127.598 164.454 127.585 164.22 127.652L164.004 126.904C163.983 126.809 163.947 126.718 163.897 126.635C163.866 126.587 163.826 126.547 163.78 126.515C163.733 126.483 163.681 126.461 163.626 126.449C163.571 126.437 163.514 126.437 163.459 126.447C163.403 126.458 163.351 126.479 163.303 126.509C163.256 126.54 163.216 126.58 163.184 126.626C163.152 126.673 163.13 126.725 163.118 126.78C163.106 126.835 163.106 126.892 163.116 126.947C163.126 127.003 163.148 127.056 163.178 127.103C162.909 126.793 162.569 126.551 162.188 126.398C161.832 126.309 161.456 126.364 161.14 126.551C160.824 126.738 160.595 127.041 160.501 127.396C160.435 127.757 160.503 128.13 160.692 128.445C160.881 128.759 161.179 128.994 161.529 129.105C161.362 129.116 161.205 129.185 161.085 129.301C160.965 129.417 160.89 129.571 160.872 129.737C160.603 131.376 161.873 131.717 163.108 131.491C164.454 131.247 165.503 131.177 165.697 129.562Z" fill="#FFE9B3"/>
<path opacity="0.15" d="M165.697 129.562C165.78 129.08 165.698 128.585 165.465 128.155C165.344 127.944 165.155 127.78 164.929 127.689C164.703 127.598 164.454 127.585 164.22 127.652L164.004 126.904C163.983 126.809 163.947 126.718 163.897 126.635C163.866 126.587 163.826 126.547 163.78 126.515C163.733 126.483 163.681 126.461 163.626 126.449C163.571 126.437 163.514 126.437 163.459 126.447C163.403 126.458 163.351 126.479 163.303 126.509C163.256 126.54 163.216 126.58 163.184 126.626C163.152 126.673 163.13 126.725 163.118 126.78C163.106 126.835 163.106 126.892 163.116 126.947C163.126 127.003 163.148 127.056 163.178 127.103C162.909 126.793 162.569 126.551 162.188 126.398C161.832 126.309 161.456 126.364 161.14 126.551C160.824 126.738 160.595 127.041 160.501 127.396C160.435 127.757 160.503 128.13 160.692 128.445C160.881 128.759 161.179 128.994 161.529 129.105C161.362 129.116 161.205 129.185 161.085 129.301C160.965 129.417 160.89 129.571 160.872 129.737C160.603 131.376 161.873 131.717 163.108 131.491C164.454 131.247 165.503 131.177 165.697 129.562Z" fill="black"/>
</g>
<defs>
<clipPath id="clip0_510_318">
<rect width="275" height="213.919" fill="white"/>
</clipPath>
</defs>
</svg>
