<svg width="275" height="214" viewBox="0 0 275 214" fill="none" xmlns="http://www.w3.org/2000/svg">
<g clip-path="url(#clip0_510_453)">
<path d="M249.22 175.359C246.635 172.609 240.654 170.253 232.643 168.694V133.252H232.277V132.885H225.663V133.252H215.271C216.202 127.889 219.308 109.191 218.682 101.681C218.682 101.681 226.757 79.6584 220.15 61.3038C220.15 61.3038 226.764 62.7717 227.492 55.4299C228.085 49.5025 234.89 36.4063 227.075 28.8711C225.24 26.9479 222.513 25.3579 218.575 24.292L216.665 18.9498C217.911 16.9782 218.682 14.3172 218.682 11.3841C218.682 7.43334 217.293 3.97103 215.212 2.02746C214.014 0.755492 212.551 -0.00769043 210.971 -0.00769043C209.768 0.0107582 208.605 0.427677 207.664 1.17779C207.802 1.28209 207.934 1.39402 208.066 1.51104C205.652 3.3147 203.996 7.05174 203.996 11.3714C203.996 14.6403 204.95 17.5684 206.459 19.5857L205.464 26.055C205.464 26.055 184.909 20.9239 193.721 55.4299C193.721 55.4299 195.924 61.3038 199.595 61.3038C199.595 61.3038 197.392 87.7328 201.063 97.2777C201.063 97.2777 199.595 120.771 202.533 125.91V133.252H184.176V169.604C174.779 171.757 168.757 175.061 168.757 178.763C168.757 185.252 187.165 190.511 209.872 190.511C232.58 190.511 250.985 185.262 250.985 178.77C250.985 177.585 250.364 176.44 249.22 175.359Z" fill="#F2F2F2"/>
<path d="M104.536 179.21C102.137 176.651 96.5656 174.461 89.0991 173.008V140.026H88.7582V139.685H82.6095V140.026H72.9425C73.81 135.037 76.6999 117.639 76.1174 110.649C76.1174 110.649 83.6322 90.1522 77.4835 73.0722C77.4835 73.0722 83.6322 74.4383 84.3165 67.6078C84.8685 62.0925 91.2004 49.9045 83.9273 42.8934C82.2203 41.1127 79.684 39.6245 76.0207 38.6374L74.2399 33.6564C75.4025 31.8196 76.1174 29.3469 76.1174 26.6147C76.1174 22.9387 74.8276 19.7181 72.8891 17.9094C71.7749 16.7239 70.4138 16.0269 68.9435 16.0269C67.8251 16.0446 66.7443 16.4329 65.8704 17.1309C65.9976 17.2276 66.1248 17.3319 66.2443 17.4387C63.998 19.1177 62.4539 22.5953 62.4539 26.6147C62.4539 29.6675 63.3442 32.3818 64.7434 34.2466L63.8174 40.2655C63.8174 40.2655 44.6895 35.4829 52.8785 67.5951C52.8785 67.5951 54.9289 73.0595 58.3454 73.0595C58.3454 73.0595 56.295 97.6543 59.7115 106.538C59.7115 106.538 58.3454 128.4 61.0776 133.183V140.013H44.0077V173.848C35.2642 175.85 29.6599 178.936 29.6599 182.378C29.6599 188.414 46.7908 193.317 67.9208 193.317C89.0508 193.317 106.179 188.422 106.179 182.378C106.179 181.281 105.602 180.215 104.536 179.21Z" fill="#F2F2F2"/>
<path d="M160.825 177.488C159.045 175.58 154.888 173.95 149.327 172.868V148.304H149.072V148.05H144.493V148.304H137.294C137.94 144.587 140.092 131.626 139.66 126.426C139.66 126.426 145.256 111.163 140.677 98.4428C140.677 98.4428 145.256 99.4604 145.765 94.3725C146.177 90.2641 150.894 81.1873 145.475 75.9646C144.203 74.6315 142.316 73.53 139.586 72.7948L138.263 69.0781C139.208 67.4937 139.693 65.6771 139.662 63.8325C139.662 61.0952 138.701 58.6963 137.256 57.348C136.426 56.4653 135.414 55.9463 134.32 55.9463C133.487 55.96 132.681 56.2499 132.03 56.7705C132.127 56.8418 132.219 56.9181 132.31 56.9995C130.636 58.2486 129.487 60.8383 129.487 63.8325C129.487 66.0992 130.15 68.1292 131.196 69.5258L130.504 74.0108C130.504 74.0108 116.258 70.4493 122.363 94.3623C122.363 94.3623 123.89 98.4326 126.434 98.4326C126.434 98.4326 124.907 116.749 127.451 123.363C127.451 123.363 126.434 139.644 128.469 143.206V148.294H115.749V173.479C109.237 174.97 105.065 177.262 105.065 179.839C105.065 184.336 117.823 187.979 133.557 187.979C149.291 187.979 162.049 184.334 162.049 179.839C162.049 179.03 161.619 178.236 160.825 177.488Z" fill="#F2F2F2"/>
<path d="M264.611 181.655C263.557 180.531 261.113 179.569 257.836 178.931V164.456H257.686V164.305H254.987V164.456H250.744C251.125 162.265 252.395 154.626 252.138 151.56C252.138 151.56 255.445 142.562 252.738 135.065C252.738 135.065 255.437 135.666 255.737 132.667C255.992 130.247 258.759 124.897 255.567 121.819C254.816 121.033 253.702 120.384 252.094 119.952L251.313 117.764C251.871 116.831 252.157 115.76 252.138 114.673C252.138 113.06 251.57 111.646 250.721 110.857C250.505 110.607 250.24 110.404 249.942 110.261C249.643 110.119 249.319 110.04 248.988 110.031C248.497 110.039 248.023 110.21 247.64 110.516C247.697 110.558 247.751 110.603 247.803 110.651C246.818 111.386 246.142 112.913 246.142 114.678C246.118 115.876 246.474 117.051 247.159 118.034L246.752 120.677C246.752 120.677 238.357 118.578 241.954 132.672C241.954 132.672 242.855 135.071 244.353 135.071C244.353 135.071 243.455 145.867 244.954 149.764C244.954 149.764 244.353 159.363 245.554 161.466V164.466H238.044V179.315C234.205 180.192 231.745 181.543 231.745 183.057C231.745 185.708 239.265 187.857 248.535 187.857C257.805 187.857 265.325 185.708 265.325 183.057C265.333 182.563 265.079 182.095 264.611 181.655Z" fill="#F2F2F2"/>
<path d="M45.8317 181.655C44.7785 180.531 42.3338 179.569 39.0572 178.931V164.456H38.9071V164.305H36.208V164.456H31.9647C32.3463 162.265 33.6157 154.626 33.3588 151.56C33.3588 151.56 36.6659 142.562 33.9592 135.065C33.9592 135.065 36.6583 135.666 36.9585 132.667C37.2001 130.247 39.9807 124.897 36.788 121.819C36.0248 121.033 34.9233 120.384 33.3155 119.952L32.5345 117.764C33.0923 116.831 33.3778 115.76 33.3588 114.673C33.3588 113.06 32.7915 111.646 31.9418 110.857C31.7263 110.607 31.461 110.404 31.1627 110.261C30.8644 110.119 30.5397 110.04 30.2094 110.031C29.7186 110.039 29.2446 110.21 28.8611 110.516C28.9177 110.558 28.9721 110.603 29.0239 110.651C28.0394 111.386 27.3627 112.913 27.3627 114.678C27.3353 115.873 27.6861 117.045 28.365 118.029L27.958 120.672C27.958 120.672 19.563 118.573 23.1601 132.667C23.1601 132.667 24.0607 135.065 25.5591 135.065C25.5591 135.065 24.661 145.862 26.1594 149.759C26.1594 149.759 25.5591 159.358 26.7598 161.461V164.461H19.2653V179.31C15.4265 180.187 12.9666 181.538 12.9666 183.052C12.9666 185.703 20.4864 187.852 29.7566 187.852C39.0267 187.852 46.5466 185.703 46.5466 183.052C46.5542 182.563 46.2998 182.095 45.8317 181.655Z" fill="#F2F2F2"/>
<path d="M0 182.752H275C275 182.752 264.824 210.409 238.756 200.559C212.689 190.709 197.11 202.467 182.803 207.87C168.495 213.274 139.884 217.41 132.572 209.142C125.261 200.875 118.581 197.061 92.8335 200.239C67.0863 203.416 50.2301 210.094 47.0426 201.193C43.855 192.291 43.2266 189.429 25.1062 191.017C6.98566 192.604 0 182.752 0 182.752Z" fill="#2F2E41"/>
<path d="M161.474 94.1131C158.386 99.3638 157.913 105.683 156.872 111.682C155.239 120.977 152.039 129.942 150.426 139.243C149.864 142.496 149.5 145.796 148.607 148.973C147.381 153.339 145.193 157.368 143.14 161.4C139.645 168.289 136.472 175.453 135.167 183.067C134.76 185.441 135.078 188.664 137.429 189.173C138.1 189.323 138.856 189.203 139.428 189.585C139.764 189.806 139.978 190.165 140.247 190.462C141.28 191.602 143.059 191.734 144.534 191.32C146.01 190.905 147.297 189.994 148.665 189.284C154.099 186.486 160.54 186.819 166.636 187.216C167.758 187.287 169.017 187.427 169.727 188.303C170.085 188.748 170.235 189.32 170.503 189.829C171.449 191.673 173.947 192.531 175.824 191.655C176.527 191.327 177.13 190.801 177.86 190.531C180.091 189.699 182.439 191.503 184.827 191.516C188.262 191.531 190.846 187.893 194.278 187.768C196.619 187.684 198.758 189.279 201.099 189.295C202.854 189.295 204.472 188.409 205.998 187.547L216.428 181.655C213.64 177.755 210.225 174.344 206.321 171.561C203.449 169.526 202.673 165.455 200.92 162.403C199.763 160.383 198.593 158.332 198.028 156.076C197.621 154.448 197.54 152.753 197.138 151.123C196.581 148.874 195.433 146.826 194.522 144.697C190.91 136.261 191.032 126.635 187.722 118.074C186.791 115.663 185.593 113.355 184.766 110.906C183.678 107.68 183.253 104.261 182.154 101.04C181.055 97.8196 179.101 94.6575 175.985 93.2711C174.632 92.7149 173.192 92.4023 171.731 92.3476C168.091 92.1136 164.852 92.7394 161.474 94.1131Z" fill="#3F3D56"/>
<path d="M175.048 51.3317H160.538V70.6809H175.048V51.3317Z" fill="#FBC661"/>
<path d="M174.657 66.3409C173.919 66.2264 173.166 66.3409 172.421 66.3409C170.587 66.318 170.065 68.5338 168.236 68.7144C166.005 68.9332 162.911 67.5213 161.047 68.7678C160.706 69.0054 160.345 69.2131 159.968 69.3886C158.442 70.0602 156.577 69.8109 155.18 70.7241C153.784 71.6374 153.272 73.4411 153.272 75.1099C153.237 75.707 153.324 76.305 153.527 76.8677C153.723 77.3435 154.048 77.7556 154.244 78.2313C154.382 78.5671 154.453 78.9258 154.567 79.2718C154.879 80.0639 155.308 80.8048 155.839 81.4697L159.07 85.9649C159.917 87.1453 159.579 88.6055 159.716 90.053C159.818 91.1647 160.078 92.2637 160.075 93.3779C160.072 94.4922 159.767 95.6675 158.935 96.4306C160.848 96.3136 162.755 96.1381 164.657 95.9041C166.224 95.7107 167.786 95.4792 169.36 95.3673C172.667 95.1332 175.99 95.436 179.282 95.7387C178.737 95.062 178.491 94.1182 178.356 93.2609C177.908 90.4168 177.626 87.4378 178.562 84.7158C178.862 83.9019 179.215 83.1082 179.618 82.3398L180.622 80.3173C182.044 77.4579 183.372 74.5273 183.675 71.3474C183.789 70.5309 183.691 69.699 183.393 68.9306C182.953 67.9461 182.001 67.2542 180.976 66.9184C179.935 66.6218 178.847 66.5268 177.771 66.6386C176.768 66.6869 175.659 66.4936 174.657 66.3409Z" fill="#3F3D56"/>
<path d="M164.211 65.0027C164.443 65.6082 164.72 66.2569 164.54 66.8827C164.204 68.1242 162.489 68.376 161.741 69.4266C161.676 69.4978 161.631 69.5851 161.611 69.6795C161.591 69.7738 161.596 69.8719 161.627 69.9634C161.663 70.0247 161.709 70.079 161.764 70.1237C163.161 71.3397 165.181 71.444 167.033 71.4236C169.732 71.3982 172.614 71.1692 174.754 69.5335C175.351 69.0756 175.914 68.3124 175.608 67.623C175.372 67.0964 174.748 66.898 174.232 66.6385C173.075 66.0559 172.245 64.9468 171.787 63.7333C171.329 62.5198 171.212 61.2097 171.192 59.9174C171.213 59.6963 171.165 59.4743 171.055 59.2814C170.877 59.027 170.546 58.9889 170.233 58.9685C168.49 58.8521 166.739 58.922 165.01 59.1771C164.522 59.2483 163.591 59.3145 163.247 59.7139C162.904 60.1133 163.102 60.5865 163.168 61.0215C163.375 62.3816 163.725 63.7161 164.211 65.0027V65.0027Z" fill="#FBB3B2"/>
<path opacity="0.05" d="M164.211 65.0027C164.443 65.6082 164.72 66.2569 164.54 66.8827C164.204 68.1242 162.489 68.376 161.741 69.4266C161.676 69.4978 161.631 69.5851 161.611 69.6795C161.591 69.7738 161.596 69.8719 161.627 69.9634C161.663 70.0247 161.709 70.079 161.764 70.1237C163.161 71.3397 165.181 71.444 167.033 71.4236C169.732 71.3982 172.614 71.1692 174.754 69.5335C175.351 69.0756 175.914 68.3124 175.608 67.623C175.372 67.0964 174.748 66.898 174.232 66.6385C173.075 66.0559 172.245 64.9468 171.787 63.7333C171.329 62.5198 171.212 61.2097 171.192 59.9174C171.213 59.6963 171.165 59.4743 171.055 59.2814C170.877 59.027 170.546 58.9889 170.233 58.9685C168.49 58.8521 166.739 58.922 165.01 59.1771C164.522 59.2483 163.591 59.3145 163.247 59.7139C162.904 60.1133 163.102 60.5865 163.168 61.0215C163.375 62.3816 163.725 63.7161 164.211 65.0027V65.0027Z" fill="black"/>
<path d="M167.495 62.5352C171.094 62.5352 174.011 59.6183 174.011 56.0202C174.011 52.422 171.094 49.5051 167.495 49.5051C163.897 49.5051 160.98 52.422 160.98 56.0202C160.98 59.6183 163.897 62.5352 167.495 62.5352Z" fill="#FBB3B2"/>
<path opacity="0.1" d="M173.708 190.541C173.192 190.767 172.699 191.042 172.235 191.36C172.809 191.723 173.463 191.94 174.141 191.993C174.818 192.046 175.498 191.934 176.122 191.666C176.616 191.434 177.058 191.106 177.531 190.839C176.229 190.432 174.949 190.078 173.708 190.541Z" fill="black"/>
<path opacity="0.1" d="M144.519 189.297C143.417 189.862 142.367 190.551 141.229 191.022C142.262 191.638 143.644 191.666 144.832 191.322C146.307 190.892 147.594 189.997 148.961 189.287C151.942 187.761 155.229 187.163 158.592 186.998C153.718 186.835 148.805 187.094 144.519 189.297Z" fill="black"/>
<path opacity="0.1" d="M206.614 171.558C203.742 169.523 202.968 165.453 201.213 162.4C200.055 160.38 198.885 158.33 198.32 156.073C197.913 154.445 197.832 152.751 197.43 151.12C196.875 148.871 195.728 146.824 194.817 144.694C191.205 136.259 191.325 126.632 188.017 118.072C187.084 115.66 185.886 113.353 185.059 110.903C183.973 107.677 183.533 104.258 182.446 101.038C181.36 97.8171 179.394 94.6549 176.277 93.2685C174.947 92.6732 173.479 92.4417 172.024 92.345C170.796 92.2638 169.564 92.2851 168.34 92.4086C169.546 92.5094 170.729 92.8014 171.843 93.2736C174.952 94.66 176.913 97.8221 178.012 101.043C179.111 104.263 179.539 107.682 180.625 110.908C181.452 113.358 182.66 115.665 183.581 118.077C186.888 126.637 186.768 136.264 190.381 144.699C191.294 146.829 192.441 148.876 192.996 151.125C193.398 152.756 193.479 154.45 193.886 156.078C194.451 158.335 195.621 160.385 196.779 162.405C198.532 165.458 199.307 169.513 202.18 171.563C206.084 174.345 209.501 177.754 212.292 181.653L201.862 187.544C200.989 188.067 200.075 188.514 199.127 188.882C199.865 189.134 200.637 189.272 201.416 189.292C203.169 189.292 204.787 188.407 206.313 187.544L216.744 181.653C213.949 177.75 210.526 174.339 206.614 171.558V171.558Z" fill="black"/>
<path opacity="0.1" d="M190.127 187.778C187.438 187.875 185.268 190.132 182.8 191.086C183.548 191.338 184.329 191.483 185.118 191.515C187.88 191.515 190.094 189.178 192.64 188.193C191.832 187.912 190.982 187.772 190.127 187.778V187.778Z" fill="black"/>
<path d="M167.101 93.3016V88.4961H164.768C164.893 87.7761 165.31 85.2602 165.226 84.2502C165.226 84.2502 166.313 81.2891 165.425 78.8215C165.543 78.8502 165.667 78.8514 165.786 78.8251C165.905 78.7987 166.017 78.7454 166.112 78.6693C166.207 78.5931 166.284 78.4962 166.336 78.3859C166.388 78.2755 166.414 78.1548 166.412 78.0328C166.509 77.0458 167.892 74.5782 165.226 73.8862L164.954 73.123C165.138 72.816 165.233 72.4634 165.226 72.1055C165.226 71.2888 164.784 70.6249 164.239 70.6249C163.695 70.6249 163.252 71.2888 163.252 72.1055C163.243 72.5 163.359 72.8874 163.583 73.2121L163.448 74.0923C163.448 74.0923 160.685 73.4003 161.871 78.0405C161.871 78.0405 162.166 78.8291 162.66 78.8291C162.66 78.8291 162.364 82.3906 162.858 83.6626C162.858 83.6626 162.66 86.8196 163.054 87.5116V88.4986H160.586V93.3855C159.314 93.6755 158.513 94.1207 158.513 94.6193C158.513 95.4919 160.988 96.1991 164.041 96.1991C167.094 96.1991 169.569 95.4919 169.569 94.6193C169.569 94.0673 168.589 93.5839 167.101 93.3016Z" fill="#C5C5C7"/>
<path opacity="0.1" d="M164.288 72.0571C164.294 72.4148 164.201 72.7672 164.018 73.0747L164.288 73.8379C166.954 74.5273 165.572 76.9949 165.473 77.982C165.475 78.104 165.449 78.2248 165.397 78.3351C165.345 78.4455 165.268 78.5426 165.173 78.6189C165.078 78.6952 164.966 78.7488 164.847 78.7755C164.728 78.8022 164.605 78.8014 164.486 78.7731C165.374 81.2407 164.288 84.2019 164.288 84.2019C164.372 85.2195 163.954 87.7252 163.83 88.4477H164.72C164.845 87.7252 165.264 85.2118 165.181 84.2019C165.181 84.2019 166.264 81.2407 165.376 78.7731C165.495 78.8014 165.619 78.8022 165.738 78.7755C165.857 78.7488 165.968 78.6952 166.063 78.6189C166.159 78.5426 166.235 78.4455 166.287 78.3351C166.339 78.2248 166.365 78.104 166.363 77.982C166.463 76.9949 167.844 74.5273 165.181 73.8379L164.908 73.0747C165.092 72.7675 165.186 72.415 165.181 72.0571C165.181 71.2405 164.738 70.5765 164.193 70.5765C164.031 70.5791 163.875 70.6354 163.748 70.7368C163.93 70.9035 164.073 71.1083 164.166 71.3365C164.259 71.5648 164.301 71.8109 164.288 72.0571V72.0571Z" fill="black"/>
<path opacity="0.1" d="M167.053 93.2507V88.4478H166.165V93.2507C167.651 93.5356 168.633 94.0139 168.633 94.5659C168.633 95.3978 166.394 96.077 163.545 96.1406H163.99C167.043 96.1406 169.518 95.4334 169.518 94.5608C169.521 94.019 168.536 93.5356 167.053 93.2507Z" fill="black"/>
<path d="M169.691 46.8721C167.656 46.3633 165.468 45.974 163.53 46.755C162.64 47.1493 161.821 47.6883 161.108 48.3501C160.449 48.9225 159.808 49.5559 159.457 50.3572C159.037 51.3239 159.085 52.4178 159.06 53.471C159.034 54.5242 158.895 55.6537 158.195 56.4398C157.923 56.7451 157.569 56.9944 157.394 57.3658C157.139 57.8746 157.307 58.5029 157.556 59.0194C157.806 59.5358 158.139 60.0242 158.253 60.589C158.409 61.37 158.106 62.1789 157.676 62.8505C157.246 63.5221 156.686 64.1022 156.241 64.7661C155.796 65.4301 155.45 66.3815 155.855 67.1116C156.109 67.5823 156.633 67.8748 156.898 68.3378C157.025 68.5591 157.088 68.8161 157.223 69.0323C157.597 69.6251 158.383 69.7701 159.078 69.8413C160.189 69.9583 161.428 69.9939 162.291 69.2816C162.883 68.7932 163.184 68.0325 163.329 67.277C163.474 66.5214 163.479 65.7506 163.614 64.9875C163.71 64.443 163.868 63.8986 163.822 63.3492C163.759 62.6165 163.334 61.9729 163 61.314C162.498 60.3992 162.264 59.3616 162.324 58.3198C162.423 57.2869 162.967 56.2668 163.878 55.7758C164.519 55.4222 165.31 55.3332 165.855 54.8448C166.717 54.0816 166.587 52.7282 166.743 51.586C166.763 51.3315 166.846 51.0859 166.984 50.8711C167.254 50.5048 167.747 50.4056 168.205 50.3623C169.271 50.2708 170.403 50.3852 171.296 50.978C172.124 51.5655 172.697 52.4459 172.899 53.4405C173.095 54.4293 173.077 55.4485 172.845 56.4296C172.881 55.9997 173.543 55.8827 173.848 56.1752C174.153 56.4678 174.168 56.9715 174.082 57.3938C173.726 59.1745 172.113 60.4465 171.571 62.1764C171.356 62.8893 171.329 63.6455 171.492 64.372C171.655 65.0984 172.003 65.7705 172.502 66.323C172.636 66.487 172.812 66.6118 173.011 66.6843C173.214 66.7238 173.423 66.7341 173.629 66.7148C174.441 66.7148 175.138 67.2719 175.756 67.801C176.374 68.3302 177.028 68.8975 177.852 68.9611C178.676 69.0247 179.564 68.2819 179.32 67.506C179.231 67.2742 179.089 67.0668 178.905 66.9005C178.396 66.3764 177.73 65.9643 177.379 65.3233C176.766 64.2472 177.14 62.9014 177.526 61.7236C177.913 60.5457 178.29 59.1974 177.661 58.1264C177.366 57.6177 176.873 57.2361 176.644 56.6967C176.517 56.3846 176.451 56.0515 176.448 55.7148C176.394 54.4835 176.702 53.2294 176.448 52.0286C176.296 51.4496 176.031 50.9066 175.667 50.4313C175.303 49.9561 174.848 49.5582 174.329 49.2608C173.801 48.9399 173.228 48.7006 172.629 48.5511C172.398 48.4925 172.047 48.5053 171.884 48.3323C171.721 48.1593 171.665 47.8515 171.459 47.6581C170.96 47.2307 170.299 47.0221 169.691 46.8721Z" fill="#FBC661"/>
<path opacity="0.05" d="M173.848 54.8066C173.737 54.7105 173.599 54.6522 173.453 54.6403C173.307 54.6284 173.161 54.6635 173.036 54.7405C173.03 55.2808 172.971 55.8193 172.861 56.3482C172.973 55.9895 173.563 55.9081 173.848 56.188C173.905 56.2445 173.954 56.3087 173.993 56.3788C174.029 56.2626 174.059 56.1445 174.082 56.0252C174.168 55.6029 174.156 55.1093 173.848 54.8066Z" fill="black"/>
<path opacity="0.05" d="M176.422 54.3462C176.425 54.4475 176.432 54.5485 176.445 54.649C176.52 53.9536 176.536 53.2533 176.494 52.5553C176.437 53.1505 176.413 53.7484 176.422 54.3462V54.3462Z" fill="black"/>
<path opacity="0.05" d="M172.861 56.3483C172.853 56.3757 172.848 56.4038 172.845 56.4322L172.861 56.3483Z" fill="black"/>
<path opacity="0.05" d="M177.102 63.2703C177.2 62.7523 177.336 62.2422 177.509 61.744C177.816 60.8129 178.111 59.7724 177.911 58.8464C177.816 59.3649 177.682 59.8752 177.509 60.3728C177.201 61.2937 176.901 62.3393 177.102 63.2703Z" fill="black"/>
<path opacity="0.05" d="M172.899 53.4431C172.944 53.6421 172.978 53.8434 173.001 54.0461C173.074 53.3835 173.039 52.7134 172.899 52.0618C172.698 51.0662 172.124 50.1847 171.296 49.5967C170.403 49.0065 169.261 48.8895 168.205 48.9811C167.752 49.0218 167.254 49.121 166.984 49.4899C166.846 49.7037 166.763 49.9484 166.743 50.2022C166.587 51.3469 166.717 52.6927 165.855 53.4609C165.31 53.9519 164.519 54.041 163.878 54.3946C162.967 54.9034 162.423 55.9209 162.324 56.9385C162.291 57.306 162.305 57.676 162.364 58.04C162.434 57.5713 162.607 57.124 162.871 56.7306C163.135 56.3372 163.483 56.0076 163.891 55.7658C164.532 55.4122 165.323 55.3231 165.867 54.8347C166.73 54.0715 166.6 52.7181 166.755 51.5759C166.776 51.3214 166.859 51.0758 166.997 50.861C167.267 50.4947 167.76 50.3955 168.218 50.3522C169.284 50.2607 170.416 50.3751 171.309 50.9679C172.134 51.5608 172.703 52.4459 172.899 53.4431V53.4431Z" fill="black"/>
<path opacity="0.05" d="M179.063 67.0914C178.91 67.2607 178.722 67.3941 178.512 67.4821C178.302 67.57 178.075 67.6104 177.847 67.6002C177.035 67.5366 176.366 66.9693 175.751 66.4401C175.135 65.911 174.436 65.3641 173.624 65.3539C173.418 65.3719 173.21 65.3616 173.006 65.3234C172.807 65.2499 172.632 65.1253 172.497 64.9621C171.933 64.3439 171.563 63.5733 171.434 62.7463C171.33 63.3873 171.371 64.0435 171.555 64.6662C171.739 65.2889 172.061 65.8622 172.497 66.3435C172.631 66.5074 172.807 66.6322 173.006 66.7047C173.209 66.7443 173.418 66.7545 173.624 66.7352C174.436 66.7352 175.133 67.2924 175.751 67.8215C176.369 68.3506 177.023 68.9179 177.847 68.9815C178.671 69.0451 179.559 68.3023 179.315 67.5264C179.261 67.3659 179.175 67.218 179.063 67.0914V67.0914Z" fill="black"/>
<path opacity="0.05" d="M158.192 60.355C158.303 59.9827 158.324 59.5896 158.253 59.2077C158.139 58.6455 157.803 58.157 157.556 57.6406C157.506 57.5355 157.46 57.4286 157.419 57.3201C157.419 57.3353 157.401 57.3506 157.394 57.3684C157.139 57.8772 157.307 58.5055 157.556 59.022C157.799 59.451 158.012 59.8964 158.192 60.355V60.355Z" fill="black"/>
<path opacity="0.05" d="M163.748 62.9346C163.705 63.161 163.654 63.3848 163.614 63.6113C163.479 64.3744 163.471 65.1376 163.329 65.9008C163.186 66.664 162.884 67.4272 162.291 67.9054C161.428 68.6152 160.19 68.5821 159.078 68.4651C158.383 68.3939 157.597 68.2463 157.223 67.6561C157.088 67.4373 157.025 67.1829 156.898 66.9591C156.643 66.491 156.117 66.1959 155.855 65.7329C155.837 65.7024 155.822 65.6668 155.806 65.6337C155.709 65.8703 155.663 66.1248 155.672 66.3804C155.68 66.6361 155.742 66.887 155.855 67.1168C156.109 67.5874 156.633 67.88 156.898 68.343C157.025 68.5643 157.088 68.8212 157.223 69.0375C157.597 69.6302 158.383 69.7752 159.078 69.8465C160.19 69.9635 161.428 69.9991 162.291 69.2868C162.884 68.7983 163.184 68.0377 163.329 67.2822C163.474 66.5266 163.479 65.7558 163.614 64.9926C163.71 64.4482 163.868 63.9038 163.822 63.3543C163.809 63.2126 163.785 63.0722 163.748 62.9346V62.9346Z" fill="black"/>
<path d="M154.27 72.6016C154.27 72.6016 152.998 73.2935 152.196 79.7093C151.395 86.1251 151.011 92.9378 151.011 92.9378C151.011 92.9378 151.011 98.6642 156.44 98.8601C156.44 98.8601 158.612 99.257 159.304 99.7505C159.996 100.244 170.853 96.886 165.72 96.189C160.586 95.4919 158.711 95.7921 158.711 95.7921C158.711 95.7921 155.946 94.0114 155.946 92.3375C155.946 90.6635 158.711 80.7066 158.711 80.7066L154.27 72.6016Z" fill="#FBB3B2"/>
<path d="M154.249 77.6335C154.387 77.9693 154.458 78.328 154.572 78.6739C154.883 79.4663 155.312 80.2073 155.844 80.8719C156.49 81.7725 157.528 83.8941 158.172 84.7947C158.557 83.473 159.122 82.2104 159.851 81.0423L154.275 72.0114C154.275 72.0114 153.837 72.2454 153.316 73.7158C153.288 73.9829 153.272 74.25 153.27 74.512C153.235 75.1092 153.321 75.7072 153.524 76.2699C153.728 76.7456 154.053 77.1577 154.249 77.6335Z" fill="#3F3D56"/>
<path d="M173.37 59.3374C173.37 59.2766 173.351 59.2174 173.316 59.1678C173.281 59.1181 173.231 59.0805 173.174 59.0601V58.7268C173.231 58.7067 173.281 58.6692 173.316 58.6195C173.351 58.5698 173.37 58.5104 173.37 58.4496C173.37 58.3947 173.356 58.3407 173.328 58.2935C173.3 58.2463 173.26 58.2078 173.211 58.1822C173.163 58.1565 173.108 58.1448 173.053 58.1483C172.998 58.1518 172.946 58.1703 172.901 58.2019C172.856 58.2334 172.821 58.2768 172.799 58.3271C172.777 58.3775 172.77 58.4329 172.777 58.4872C172.785 58.5415 172.808 58.5926 172.843 58.6349C172.878 58.6772 172.923 58.709 172.975 58.7268V59.0601C172.918 59.0803 172.868 59.118 172.832 59.1679C172.797 59.2178 172.778 59.2775 172.778 59.3387C172.778 59.3999 172.797 59.4595 172.832 59.5095C172.868 59.5594 172.918 59.597 172.975 59.6172V59.9479C172.918 59.9681 172.868 60.0058 172.832 60.0557C172.797 60.1056 172.778 60.1653 172.778 60.2265C172.778 60.2877 172.797 60.3474 172.832 60.3973C172.868 60.4472 172.918 60.4849 172.975 60.5051V60.8383C172.91 60.8617 172.855 60.9074 172.82 60.9675C172.785 61.0276 172.772 61.0981 172.784 61.1666C172.796 61.2351 172.831 61.2972 172.885 61.342C172.938 61.3868 173.005 61.4113 173.075 61.4113C173.144 61.4113 173.211 61.3868 173.265 61.342C173.318 61.2972 173.353 61.2351 173.365 61.1666C173.377 61.0981 173.364 61.0276 173.329 60.9675C173.294 60.9074 173.239 60.8617 173.174 60.8383V60.5051C173.232 60.4849 173.282 60.4472 173.317 60.3973C173.352 60.3474 173.371 60.2877 173.371 60.2265C173.371 60.1653 173.352 60.1056 173.317 60.0557C173.282 60.0058 173.232 59.9681 173.174 59.9479V59.6172C173.231 59.5966 173.281 59.5587 173.316 59.5085C173.351 59.4584 173.37 59.3986 173.37 59.3374Z" fill="#EEEFF3"/>
<path d="M182.897 68.6533C184.414 71.1925 185.514 73.9592 186.153 76.8474C187.14 81.4875 187.832 82.4746 187.832 82.4746C187.832 82.4746 192.177 93.5305 187.338 94.2225C182.5 94.9144 174.013 94.2225 174.013 94.2225C174.013 94.2225 156.836 97.1836 162.858 93.2354C168.879 89.2872 173.624 89.7782 173.624 89.7782C173.624 89.7782 180.831 89.5823 181.818 88.8904L183.693 88.6945L179.251 76.0587L182.897 68.6533Z" fill="#FBB3B2"/>
<path d="M178.307 75.9087L180.378 80.7421C181.777 77.9209 183.388 74.4637 183.685 71.3296C183.713 70.7494 183.701 70.1679 183.647 69.5895C183.42 69.1176 183.12 68.6841 182.759 68.3048L178.307 75.9087Z" fill="#3F3D56"/>
<path d="M110.654 131.585C110.654 131.585 105.66 141.98 109.128 145.648C112.595 149.317 114.938 131.178 114.938 131.178L110.654 131.585Z" fill="#A0616A"/>
<path d="M86.499 180.195L80.9023 187.226C80.9023 187.226 69.5894 191.711 79.984 192.314C79.984 192.314 85.0719 191.907 86.0894 191.192C87.107 190.478 87.7201 189.053 89.7578 189.87C91.7955 190.686 94.141 189.053 94.141 189.053C94.141 189.053 94.4463 181.103 92.4086 180.187C90.3709 179.271 86.499 180.195 86.499 180.195Z" fill="#36344A"/>
<path d="M107.393 182.741L106.067 188.552C106.067 188.552 103.111 195.481 107.393 194.461C111.674 193.441 113.813 192.322 114.22 190.284C114.627 188.246 115.747 186.003 115.747 186.003C115.747 186.003 114.523 182.843 113.404 182.741C112.285 182.64 107.393 182.741 107.393 182.741Z" fill="#36344A"/>
<path d="M80.0781 112.521C80.0781 112.521 76.4097 137.706 78.9588 151.443C81.5078 165.181 84.5554 179.266 84.5554 179.266C84.5554 179.266 80.9939 187.407 93.2048 182.019C93.2048 182.019 92.3908 161.838 89.9435 153.992C87.4962 146.147 91.2002 135.554 92.2178 135.249C92.2178 135.249 96.2881 155.735 100.269 162.469C104.251 169.203 106.464 184.883 106.464 184.883C106.464 184.883 115.027 186.003 114.925 183.762C114.823 181.52 113.294 162.563 108.311 155.837C108.311 155.837 104.029 144.626 106.784 133.007C109.539 121.389 103.828 117.413 103.828 117.413L94.7617 106.713L85.6926 104.678L80.0781 112.521Z" fill="#3F3D56"/>
<path d="M106.973 69.1316C106.877 69.4634 106.723 69.7753 106.517 70.0525C106.305 70.2807 106.053 70.4694 105.774 70.6097C104.879 71.115 103.931 71.5218 102.948 71.8231C102.694 72.3319 103.106 72.9043 103.498 73.3164L104.647 74.5324C105.319 75.2396 105.991 75.9469 106.716 76.5981C108.118 77.856 109.708 78.8861 111.43 79.6508C112.33 80.0502 113.493 80.3351 114.215 79.6661C114.938 78.997 114.757 77.8217 115.195 76.9492C115.25 76.8972 115.292 76.8331 115.319 76.7619C115.345 76.6908 115.354 76.6145 115.346 76.5391C115.338 76.4636 115.313 76.3911 115.272 76.3272C115.231 76.2633 115.176 76.2098 115.111 76.1707C114.52 75.5882 114.401 74.6673 114.526 73.8481C114.65 73.029 114.983 72.2556 115.174 71.4492C115.365 70.6427 115.401 69.7422 114.971 69.0324C114.718 68.6549 114.391 68.3329 114.009 68.0861C113.174 67.4935 112.243 67.0494 111.257 66.7734C110.748 66.6335 110.239 66.5394 109.73 66.3893C109.415 66.2926 108.56 65.7024 108.29 65.7507C107.736 65.8423 107.169 68.5389 106.973 69.1316Z" fill="#A0616A"/>
<path opacity="0.1" d="M106.973 69.1316C106.877 69.4634 106.723 69.7753 106.517 70.0525C106.305 70.2807 106.053 70.4694 105.774 70.6097C104.879 71.115 103.931 71.5218 102.948 71.8231C102.694 72.3319 103.106 72.9043 103.498 73.3164L104.647 74.5324C105.319 75.2396 105.991 75.9469 106.716 76.5981C108.118 77.856 109.708 78.8861 111.43 79.6508C112.33 80.0502 113.493 80.3351 114.215 79.6661C114.938 78.997 114.757 77.8217 115.195 76.9492C115.25 76.8972 115.292 76.8331 115.319 76.7619C115.345 76.6908 115.354 76.6145 115.346 76.5391C115.338 76.4636 115.313 76.3911 115.272 76.3272C115.231 76.2633 115.176 76.2098 115.111 76.1707C114.52 75.5882 114.401 74.6673 114.526 73.8481C114.65 73.029 114.983 72.2556 115.174 71.4492C115.365 70.6427 115.401 69.7422 114.971 69.0324C114.718 68.6549 114.391 68.3329 114.009 68.0861C113.174 67.4935 112.243 67.0494 111.257 66.7734C110.748 66.6335 110.239 66.5394 109.73 66.3893C109.415 66.2926 108.56 65.7024 108.29 65.7507C107.736 65.8423 107.169 68.5389 106.973 69.1316Z" fill="black"/>
<path d="M105.83 70.9607C105.818 70.7597 105.795 70.5257 105.624 70.4163C105.525 70.3617 105.412 70.3378 105.299 70.3476C102.892 70.3476 100.941 72.2403 99.4274 74.1076C96.2373 78.038 93.7213 82.4746 91.5412 87.0461C90.2005 89.8622 88.9565 93.0294 89.8189 96.0287C90.0916 96.9182 90.4973 97.7613 91.0222 98.5294C91.7452 99.6271 92.6225 100.615 93.6272 101.463C94.0042 101.825 94.4716 102.08 94.9806 102.2C95.7437 102.322 96.4688 101.903 97.12 101.498C98.4276 100.684 99.7293 99.8616 101.025 99.0306C103.129 97.6823 105.233 96.3111 107.087 94.6372C108.942 92.9633 110.552 90.9637 111.465 88.6386C111.855 87.6515 112.114 86.6034 112.552 85.6469C113.218 84.174 114.294 82.874 114.676 81.3018C114.856 80.5514 114.872 79.7755 115.065 79.025C115.218 78.4272 115.482 77.8624 115.609 77.2595C115.737 76.6566 115.706 75.9875 115.322 75.494C114.676 74.6749 113.419 74.797 112.396 75.0081C111.063 75.2829 108.687 75.9596 107.418 75.1531C106.332 74.4586 105.907 72.1411 105.83 70.9607Z" fill="#EEEFF3"/>
<path d="M105.151 75.8324L103.724 75.9341L102.707 75.5246L103.523 73.0798C103.523 73.0798 106.398 73.4055 106.693 74.3111C106.693 74.3111 106.907 74.9344 107.253 75.026C107.599 75.1175 109.033 74.914 109.331 75.6263C109.629 76.3386 109.534 80.2054 107.599 79.6966L106.683 77.2494L106.273 76.6388C106.273 76.6388 105.05 76.4429 105.151 75.8324Z" fill="#3F3D56"/>
<path d="M93.4287 98.5599C93.4287 98.5599 96.5883 77.7683 106.474 70.3221C106.474 70.3221 106.576 68.3862 104.843 68.5897C103.111 68.7932 95.8759 67.3661 95.8759 67.3661L89.048 80.6175C89.048 80.6175 87.5216 92.948 86.3972 94.9857C85.2728 97.0234 78.2439 113.231 78.2439 113.231C78.2439 113.231 82.2201 126.581 88.1296 108.652C88.1296 108.652 83.5506 123.226 96.4865 124.653C109.422 126.08 107.901 123.836 107.901 123.836L109.428 113.238V105.286L112.282 99.6894L123.9 84.9116C123.9 84.9116 116.014 73.9931 114.508 74.9674C114.51 74.9572 104.742 90.4066 93.4287 98.5599Z" fill="#3F3D56"/>
<path d="M97.405 68.1878L95.8787 67.3712C95.8787 67.3712 91.1902 69.1036 89.5595 75.8324C89.5595 75.8324 85.5859 78.6841 82.9453 80.8261C82.9453 80.8261 79.3837 74.2119 79.3837 71.9579C79.3837 71.9579 73.4716 75.9341 72.1462 74.914C72.1462 74.914 75.7078 91.3224 82.4416 90.0988C89.1754 88.8752 91.7091 84.9015 91.7091 84.9015L97.405 68.1878Z" fill="#3F3D56"/>
<path d="M120.031 85.5146L123.903 84.9015C123.903 84.9015 126.35 88.1628 121.967 92.9531L119.316 109.158C119.316 109.158 119.621 114.559 118.705 118.637C117.79 122.715 116.36 135.249 116.36 135.249C116.36 135.249 111.674 133.516 109.125 133.821L112.997 96.2246L120.031 85.5146Z" fill="#3F3D56"/>
<path d="M79.1623 73.0748C79.1623 73.0748 77.0203 60.2329 73.352 65.0232C69.6836 69.8134 73.759 76.4378 73.759 76.4378L79.1623 73.0748Z" fill="#A0616A"/>
<path d="M114.783 73.7437C119.342 73.7437 123.038 70.0478 123.038 65.4886C123.038 60.9294 119.342 57.2335 114.783 57.2335C110.224 57.2335 106.528 60.9294 106.528 65.4886C106.528 70.0478 110.224 73.7437 114.783 73.7437Z" fill="#A0616A"/>
<path d="M121.382 56.5824C121.193 56.3474 121.023 56.0982 120.873 55.837C120.377 55.1094 119.601 54.6337 118.838 54.2063C117.441 53.4432 115.849 52.7258 114.294 53.0972C113.218 53.3516 112.305 54.1148 111.221 54.3335C110.137 54.5523 108.85 54.3106 108.12 55.1247C107.39 55.9388 107.713 57.2209 107.085 58.0629C106.736 58.5285 106.09 58.9559 106.266 59.5104C106.339 59.7445 106.556 59.9099 106.655 60.1363C106.83 60.5331 106.614 60.9885 106.604 61.4235C106.591 62.0671 107.031 62.6191 107.342 63.1839C107.652 63.7487 107.82 64.5373 107.342 64.9799C108.961 63.6851 110.735 62.5972 112.623 61.7415C112.62 62.0026 112.552 62.2589 112.424 62.4869C113.447 62.3362 114.459 62.1213 115.454 61.8432L114.93 62.8481L117.179 61.8661C117.787 61.599 118.55 61.3574 119.069 61.7644C119.308 61.9925 119.476 62.2849 119.553 62.6064C119.849 63.5253 120.025 64.4788 120.077 65.4429C120.133 66.5317 120.077 67.7325 120.781 68.5643C120.981 68.7751 121.222 68.9426 121.489 69.0564C121.756 69.1703 122.043 69.228 122.334 69.2261C122.624 69.2242 122.911 69.1627 123.176 69.0453C123.442 68.928 123.68 68.7573 123.877 68.544C124.076 67.7808 123.778 66.9922 123.763 66.2086C123.74 65.0664 124.315 63.9929 124.419 62.8557C124.554 61.4184 123.704 60.5662 123.318 59.2942C123.167 58.8058 123.259 58.2283 122.972 57.7678C122.6 57.198 121.842 57.0708 121.382 56.5824Z" fill="#3F3D56"/>
<path d="M73.4054 79.8645L76.3488 74.9216L73.9473 73.492C74.5171 72.8254 76.4912 70.4952 77.0178 69.4064C77.0178 69.4064 79.9485 67.0253 80.5463 63.942C80.5463 63.942 81.34 64.6899 82.0472 63.7334C82.7544 62.7769 85.685 61.0877 83.3675 58.7447L83.5532 57.7958C83.9307 57.5928 84.2436 57.2878 84.4563 56.9156C84.9651 56.0736 84.9066 55.1349 84.3469 54.7889C83.7873 54.4429 82.9249 54.8652 82.4237 55.7073C82.1739 56.1069 82.0564 56.5751 82.0879 57.0454L81.4188 57.8594C81.4188 57.8594 78.997 55.4554 77.374 60.9529C77.374 60.9529 77.1959 61.9476 77.7047 62.2503C77.7047 62.2503 75.2218 65.7228 74.9445 67.3382C74.9445 67.3382 72.8076 70.4672 72.7898 71.4085L72.1843 72.426L69.6404 70.9149L66.6487 75.9443C65.1707 75.4686 64.0666 75.4355 63.7614 75.9443C63.2271 76.8423 65.3386 79.0861 68.4804 80.9559C71.6221 82.8257 74.5985 83.6117 75.1328 82.7163C75.4762 82.1642 74.7614 81.0653 73.4054 79.8645Z" fill="#C5C5C7"/>
<path opacity="0.1" d="M83.5201 56.2847C83.3076 56.6567 82.9958 56.9624 82.6196 57.1674L82.4313 58.1138C84.7514 60.4567 81.8182 62.1484 81.111 63.105C81.0382 63.2315 80.9374 63.3397 80.8163 63.4212C80.6952 63.5027 80.557 63.5555 80.4124 63.5754C80.2677 63.5953 80.1205 63.5818 79.9818 63.536C79.8432 63.4901 79.7169 63.4132 79.6127 63.311C79.0148 66.3943 76.0842 68.7754 76.0842 68.7754C75.5525 69.8668 73.5835 72.197 73.0137 72.861L73.9269 73.4054C74.4968 72.7414 76.4709 70.4086 76.9975 69.3198C76.9975 69.3198 79.9281 66.9387 80.5259 63.8554C80.5259 63.8554 81.3196 64.6033 82.0269 63.6468C82.7341 62.6903 85.6647 61.0011 83.3472 58.6582L83.5329 57.7093C83.9094 57.5058 84.2214 57.2009 84.4334 56.8291C84.9422 55.9896 84.8862 55.0483 84.3266 54.7023C84.1586 54.6062 83.9638 54.5678 83.772 54.5929C83.8577 54.876 83.8796 55.1746 83.8361 55.4671C83.7925 55.7596 83.6846 56.0389 83.5201 56.2847V56.2847Z" fill="black"/>
<path opacity="0.1" d="M73.3927 79.7831L76.3361 74.8402L75.4279 74.2958L72.4845 79.2387C73.8404 80.4419 74.5528 81.5282 74.217 82.1031C73.7082 82.9554 70.9887 82.2838 68.0225 80.6098C68.1726 80.7014 68.3226 80.7955 68.4778 80.8871C71.617 82.7569 74.596 83.5455 75.1302 82.6475C75.4533 82.0828 74.741 80.9838 73.3927 79.7831Z" fill="black"/>
</g>
<defs>
<clipPath id="clip0_510_453">
<rect width="275" height="213.821" fill="white"/>
</clipPath>
</defs>
</svg>
